0 base
0 Name: base.ldr
0 Author: brick-check

0 // base
1 72 40 -8 50 0 0 1 0 1 0 -1 0 0 3021.dat
1 72 50 -8 120 1 0 0 0 1 0 0 0 1 3021.dat
1 72 50 -8 150 1 0 0 0 1 0 0 0 1 3024.dat
1 72 70 -8 60 0 0 1 0 1 0 -1 0 0 3023b.dat
1 72 190 -8 40 1 0 0 0 1 0 0 0 1 3021.dat
1 72 190 -8 140 1 0 0 0 1 0 0 0 1 3021.dat
1 72 190 -8 70 1 0 0 0 1 0 0 0 1 3024.dat
1 72 190 -8 110 1 0 0 0 1 0 0 0 1 3024.dat
1 72 50 -16 140 1 0 0 0 1 0 0 0 1 3021.dat
1 72 50 -16 40 1 0 0 0 1 0 0 0 1 3021.dat
1 72 190 -16 60 1 0 0 0 1 0 0 0 1 3021.dat
1 72 190 -16 120 1 0 0 0 1 0 0 0 1 3021.dat
1 72 50 -16 70 1 0 0 0 1 0 0 0 1 3623.dat
1 72 50 -16 110 1 0 0 0 1 0 0 0 1 3623.dat
1 72 190 -16 30 1 0 0 0 1 0 0 0 1 3623.dat
1 72 190 -16 150 1 0 0 0 1 0 0 0 1 3623.dat
1 72 190 -24 40 0 0 1 0 1 0 -1 0 0 3710.dat
1 72 40 -24 50 0 0 1 0 1 0 -1 0 0 3021.dat
1 72 40 -24 130 0 0 1 0 1 0 -1 0 0 3021.dat
1 72 70 -24 50 0 0 1 0 1 0 -1 0 0 3623.dat
1 72 70 -24 130 0 0 1 0 1 0 -1 0 0 3623.dat
1 72 170 -24 50 0 0 1 0 1 0 -1 0 0 3623.dat
1 72 180 -24 130 0 0 1 0 1 0 -1 0 0 3021.dat
1 72 210 -24 50 0 0 1 0 1 0 -1 0 0 3623.dat
1 72 210 -24 130 0 0 1 0 1 0 -1 0 0 3623.dat
1 72 190 -32 140 0 0 1 0 1 0 -1 0 0 3710.dat
1 72 200 -32 40 0 0 1 0 1 0 -1 0 0 3020.dat
1 72 220 -32 140 1 0 0 0 1 0 0 0 1 3022.dat
1 72 50 -32 40 1 0 0 0 1 0 0 0 1 3021.dat
1 72 50 -32 70 1 0 0 0 1 0 0 0 1 3623.dat
1 72 50 -32 120 1 0 0 0 1 0 0 0 1 3021.dat
1 323 30 -32 150 1 0 0 0 1 0 0 0 1 3024.dat
1 72 60 -32 150 1 0 0 0 1 0 0 0 1 3023b.dat
1 72 170 -32 50 0 0 1 0 1 0 -1 0 0 3623.dat
1 72 170 -32 130 0 0 1 0 1 0 -1 0 0 3623.dat
1 72 210 -32 110 1 0 0 0 1 0 0 0 1 3024.dat
1 72 200 -40 150 0 0 1 0 1 0 -1 0 0 3021.dat
1 15 30 -40 30 1 0 0 0 1 0 0 0 1 3024.dat
1 323 50 -40 50 1 0 0 0 1 0 0 0 1 3623.dat
1 72 30 -40 70 1 0 0 0 1 0 0 0 1 3024.dat
1 72 30 -40 110 1 0 0 0 1 0 0 0 1 3024.dat
1 323 50 -40 130 1 0 0 0 1 0 0 0 1 3623.dat
1 15 30 -40 150 1 0 0 0 1 0 0 0 1 3024.dat
1 323 60 -40 30 1 0 0 0 1 0 0 0 1 3023b.dat
1 323 60 -40 70 1 0 0 0 1 0 0 0 1 3023b.dat
1 323 60 -40 110 1 0 0 0 1 0 0 0 1 3023b.dat
1 323 60 -40 150 1 0 0 0 1 0 0 0 1 3023b.dat
1 72 190 -40 30 1 0 0 0 1 0 0 0 1 3623.dat
1 323 200 -40 50 1 0 0 0 1 0 0 0 1 3710.dat
1 72 230 -32 40 0 0 1 0 1 0 -1 0 0 3023b.dat
1 15 170 -40 70 1 0 0 0 1 0 0 0 1 3024.dat
1 323 190 -40 110 1 0 0 0 1 0 0 0 1 3623.dat
1 323 170 -40 130 1 0 0 0 1 0 0 0 1 3024.dat
1 72 170 -40 150 1 0 0 0 1 0 0 0 1 3024.dat
1 323 200 -40 10 1 0 0 0 1 0 0 0 1 3023b.dat
1 72 200 -40 70 1 0 0 0 1 0 0 0 1 3023b.dat
1 323 230 -40 30 1 0 0 0 1 0 0 0 1 3024.dat
1 323 230 -40 140 0 0 1 0 1 0 -1 0 0 3023b.dat
1 78 100 -48 50 1 0 0 0 1 0 0 0 1 3710.dat
1 78 80 -48 70 1 0 0 0 1 0 0 0 1 3023b.dat
1 78 80 -48 110 1 0 0 0 1 0 0 0 1 3023b.dat
1 15 70 -48 130 1 0 0 0 1 0 0 0 1 3623.dat
1 78 160 -48 70 1 0 0 0 1 0 0 0 1 3023b.dat
1 78 160 -48 110 1 0 0 0 1 0 0 0 1 3023b.dat
1 15 190 -48 20 1 0 0 0 1 0 0 0 1 3021.dat
1 323 180 -48 160 1 0 0 0 1 0 0 0 1 3022.dat
1 15 40 -48 40 1 0 0 0 1 0 0 0 1 3022.dat
1 323 30 -48 70 1 0 0 0 1 0 0 0 1 3024.dat
1 323 30 -48 120 0 0 1 0 1 0 -1 0 0 3023b.dat
1 15 30 -48 150 1 0 0 0 1 0 0 0 1 3024.dat
1 15 50 -48 70 1 0 0 0 1 0 0 0 1 3024.dat
1 15 50 -48 110 1 0 0 0 1 0 0 0 1 3024.dat
1 323 60 -48 150 1 0 0 0 1 0 0 0 1 3023b.dat
1 323 70 -48 30 1 0 0 0 1 0 0 0 1 3024.dat
1 15 200 -48 50 1 0 0 0 1 0 0 0 1 3710.dat
1 15 200 -48 130 1 0 0 0 1 0 0 0 1 3710.dat
1 323 190 -48 70 1 0 0 0 1 0 0 0 1 3024.dat
1 323 190 -48 110 1 0 0 0 1 0 0 0 1 3024.dat
1 15 210 -48 70 1 0 0 0 1 0 0 0 1 3024.dat
1 15 210 -48 110 1 0 0 0 1 0 0 0 1 3024.dat
1 15 220 -48 150 1 0 0 0 1 0 0 0 1 3023b.dat
1 15 210 -48 170 1 0 0 0 1 0 0 0 1 3024.dat
1 15 230 -48 30 1 0 0 0 1 0 0 0 1 3024.dat
1 15 60 -56 100 0 0 1 0 1 0 -1 0 0 3795.dat
1 15 90 -56 80 0 0 1 0 1 0 -1 0 0 3666.dat
1 78 90 -48 90 1 0 0 0 1 0 0 0 1 3024.dat
1 15 180 -56 30 1 0 0 0 1 0 0 0 1 3710.dat
1 78 140 -56 80 1 0 0 0 1 0 0 0 1 3031.dat
1 78 120 -48 100 0 0 1 0 1 0 -1 0 0 3020.dat
1 78 150 -48 90 1 0 0 0 1 0 0 0 1 3024.dat
1 78 110 -40 80 0 0 1 0 1 0 -1 0 0 3023b.dat
1 78 130 -40 90 1 0 0 0 1 0 0 0 1 3024.dat
1 19 160 -56 130 1 0 0 0 1 0 0 0 1 3666.dat
1 15 180 -56 150 1 0 0 0 1 0 0 0 1 3710.dat
1 15 190 -56 80 0 0 1 0 1 0 -1 0 0 3710.dat
1 15 30 -56 50 0 0 1 0 1 0 -1 0 0 3623.dat
1 15 30 -56 130 0 0 1 0 1 0 -1 0 0 3623.dat
1 15 60 -56 30 1 0 0 0 1 0 0 0 1 3023b.dat
1 323 180 -56 170 1 0 0 0 1 0 0 0 1 3023b.dat
1 15 190 -56 10 1 0 0 0 1 0 0 0 1 3623.dat
1 15 210 -56 60 0 0 1 0 1 0 -1 0 0 3023b.dat
1 15 210 -56 110 1 0 0 0 1 0 0 0 1 3024.dat
1 15 210 -56 170 1 0 0 0 1 0 0 0 1 3024.dat
1 15 230 -56 40 0 0 1 0 1 0 -1 0 0 3023b.dat
1 15 230 -56 140 0 0 1 0 1 0 -1 0 0 3023b.dat
1 15 60 -64 100 0 0 1 0 1 0 -1 0 0 3032.dat
1 15 90 -56 150 1 0 0 0 1 0 0 0 1 3024.dat
1 15 160 -64 40 1 0 0 0 1 0 0 0 1 3795.dat
1 15 160 -64 140 1 0 0 0 1 0 0 0 1 3795.dat
1 15 60 -64 30 1 0 0 0 1 0 0 0 1 3710.dat
1 15 160 -64 70 1 0 0 0 1 0 0 0 1 3666.dat
1 15 160 -64 110 1 0 0 0 1 0 0 0 1 3666.dat
1 15 170 -64 90 1 0 0 0 1 0 0 0 1 3623.dat
1 15 190 -64 10 1 0 0 0 1 0 0 0 1 3623.dat
1 15 190 -64 170 1 0 0 0 1 0 0 0 1 3623.dat
1 15 230 -64 40 0 0 1 0 1 0 -1 0 0 3023b.dat
1 15 230 -64 140 0 0 1 0 1 0 -1 0 0 3023b.dat
1 15 200 -72 100 0 0 1 0 1 0 -1 0 0 3034.dat
1 15 100 -72 60 1 0 0 0 1 0 0 0 1 3034.dat
1 15 50 -72 100 1 0 0 0 1 0 0 0 1 3021.dat
1 323 100 -72 130 1 0 0 0 1 0 0 0 1 3460.dat
1 15 100 -72 150 1 0 0 0 1 0 0 0 1 3460.dat
1 15 100 -72 30 1 0 0 0 1 0 0 0 1 3460.dat
1 72 120 -72 110 1 0 0 0 1 0 0 0 1 3710.dat
1 72 170 -72 100 0 0 1 0 1 0 -1 0 0 3023b.dat
1 15 170 -72 170 1 0 0 0 1 0 0 0 1 3024.dat
1 15 190 -72 10 1 0 0 0 1 0 0 0 1 3623.dat
1 15 230 -72 40 0 0 1 0 1 0 -1 0 0 3023b.dat
1 15 230 -72 140 0 0 1 0 1 0 -1 0 0 3023b.dat
1 15 180 -80 20 1 0 0 0 1 0 0 0 1 3020.dat
1 15 80 -80 40 1 0 0 0 1 0 0 0 1 3795.dat
1 15 80 -80 70 1 0 0 0 1 0 0 0 1 3666.dat
1 15 50 -80 100 1 0 0 0 1 0 0 0 1 3021.dat
1 72 100 -80 130 1 0 0 0 1 0 0 0 1 3460.dat
1 15 100 -80 150 1 0 0 0 1 0 0 0 1 3460.dat
1 72 140 -80 110 1 0 0 0 1 0 0 0 1 3666.dat
1 72 180 -80 50 1 0 0 0 1 0 0 0 1 3710.dat
1 15 190 -80 80 1 0 0 0 1 0 0 0 1 3021.dat
1 15 190 -80 170 1 0 0 0 1 0 0 0 1 3623.dat
1 15 210 -80 140 1 0 0 0 1 0 0 0 1 3021.dat
1 15 210 -80 110 1 0 0 0 1 0 0 0 1 3024.dat
1 15 230 -80 40 0 0 1 0 1 0 -1 0 0 3023b.dat
1 15 160 -88 20 1 0 0 0 1 0 0 0 1 3795.dat
1 15 160 -88 160 1 0 0 0 1 0 0 0 1 3020.dat
1 15 220 -88 100 0 0 1 0 1 0 -1 0 0 3795.dat
1 15 40 -88 60 0 0 1 0 1 0 -1 0 0 3020.dat
1 15 60 -88 110 1 0 0 0 1 0 0 0 1 3710.dat
1 72 100 -88 130 1 0 0 0 1 0 0 0 1 3460.dat
1 15 60 -88 150 1 0 0 0 1 0 0 0 1 3710.dat
1 15 80 -88 50 0 0 1 0 1 0 -1 0 0 3021.dat
1 72 70 -88 90 1 0 0 0 1 0 0 0 1 3024.dat
1 72 140 -88 50 1 0 0 0 1 0 0 0 1 3710.dat
1 72 110 -88 110 1 0 0 0 1 0 0 0 1 3024.dat
1 15 110 -88 150 1 0 0 0 1 0 0 0 1 3024.dat
1 72 190 -88 80 0 0 1 0 1 0 -1 0 0 3710.dat
1 72 190 -88 130 1 0 0 0 1 0 0 0 1 3024.dat
1 15 210 -88 170 1 0 0 0 1 0 0 0 1 3024.dat
1 15 230 -88 30 1 0 0 0 1 0 0 0 1 3024.dat
1 15 30 -96 80 1 0 0 0 1 0 0 0 1 3021.dat
1 15 60 -96 110 1 0 0 0 1 0 0 0 1 3666.dat
1 15 100 -96 40 1 0 0 0 1 0 0 0 1 3034.dat
1 72 100 -96 130 1 0 0 0 1 0 0 0 1 3460.dat
1 72 30 -96 150 1 0 0 0 1 0 0 0 1 3024.dat
1 15 120 -96 150 1 0 0 0 1 0 0 0 1 3460.dat
1 72 80 -96 70 1 0 0 0 1 0 0 0 1 3023b.dat
1 15 160 -96 10 1 0 0 0 1 0 0 0 1 3666.dat
1 15 160 -96 170 1 0 0 0 1 0 0 0 1 3710.dat
1 72 200 -96 80 0 0 1 0 1 0 -1 0 0 3795.dat
1 15 220 -96 150 1 0 0 0 1 0 0 0 1 3023b.dat
1 15 230 -96 80 0 0 1 0 1 0 -1 0 0 3666.dat
1 15 100 -104 40 1 0 0 0 1 0 0 0 1 3034.dat
1 72 40 -104 100 0 0 1 0 1 0 -1 0 0 3020.dat
1 72 30 -104 150 1 0 0 0 1 0 0 0 1 3024.dat
1 15 120 -104 150 1 0 0 0 1 0 0 0 1 3460.dat
1 72 80 -104 70 1 0 0 0 1 0 0 0 1 3023b.dat
1 72 90 -104 120 1 0 0 0 1 0 0 0 1 3021.dat
1 15 140 -104 10 1 0 0 0 1 0 0 0 1 3710.dat
1 15 180 -104 130 1 0 0 0 1 0 0 0 1 3666.dat
1 15 160 -104 170 1 0 0 0 1 0 0 0 1 3710.dat
1 15 200 -104 60 0 0 1 0 1 0 -1 0 0 3020.dat
1 15 210 -104 110 1 0 0 0 1 0 0 0 1 3623.dat
1 15 190 -104 10 1 0 0 0 1 0 0 0 1 3024.dat
1 15 220 -104 150 1 0 0 0 1 0 0 0 1 3023b.dat
1 15 230 -104 60 0 0 1 0 1 0 -1 0 0 3710.dat
1 15 10 -104 90 0 0 1 0 1 0 -1 0 0 3623.dat
1 15 80 -112 50 1 0 0 0 1 0 0 0 1 3460.dat
1 72 80 -112 130 1 0 0 0 1 0 0 0 1 3460.dat
1 15 30 -112 80 1 0 0 0 1 0 0 0 1 3021.dat
1 15 60 -112 110 1 0 0 0 1 0 0 0 1 3666.dat
1 15 50 -112 30 1 0 0 0 1 0 0 0 1 3623.dat
1 72 30 -112 150 1 0 0 0 1 0 0 0 1 3024.dat
1 15 60 -112 150 1 0 0 0 1 0 0 0 1 3023b.dat
1 72 80 -112 70 1 0 0 0 1 0 0 0 1 3023b.dat
1 323 140 -112 30 1 0 0 0 1 0 0 0 1 3666.dat
1 323 90 -112 150 1 0 0 0 1 0 0 0 1 3024.dat
1 323 110 -112 10 1 0 0 0 1 0 0 0 1 3024.dat
1 15 160 -112 150 1 0 0 0 1 0 0 0 1 3666.dat
1 72 130 -112 10 1 0 0 0 1 0 0 0 1 3024.dat
1 15 130 -112 170 1 0 0 0 1 0 0 0 1 3024.dat
1 15 170 -112 10 1 0 0 0 1 0 0 0 1 3623.dat
1 323 150 -112 170 1 0 0 0 1 0 0 0 1 3024.dat
1 15 200 -112 50 1 0 0 0 1 0 0 0 1 3710.dat
1 15 200 -112 130 1 0 0 0 1 0 0 0 1 3710.dat
1 15 180 -112 170 1 0 0 0 1 0 0 0 1 3023b.dat
1 15 210 -112 80 1 0 0 0 1 0 0 0 1 3021.dat
1 15 210 -112 110 1 0 0 0 1 0 0 0 1 3623.dat
1 15 220 -112 30 1 0 0 0 1 0 0 0 1 3023b.dat
1 15 230 -112 150 1 0 0 0 1 0 0 0 1 3024.dat
1 15 40 -120 100 0 0 1 0 1 0 -1 0 0 3795.dat
1 15 40 -120 30 1 0 0 0 1 0 0 0 1 3023b.dat
1 72 140 -120 50 1 0 0 0 1 0 0 0 1 3460.dat
1 72 80 -120 70 1 0 0 0 1 0 0 0 1 3023b.dat
1 72 90 -120 120 1 0 0 0 1 0 0 0 1 3021.dat
1 323 70 -120 150 1 0 0 0 1 0 0 0 1 3024.dat
1 323 70 -120 30 1 0 0 0 1 0 0 0 1 3024.dat
1 72 90 -120 150 1 0 0 0 1 0 0 0 1 3024.dat
1 72 140 -120 30 1 0 0 0 1 0 0 0 1 3666.dat
1 15 140 -120 150 1 0 0 0 1 0 0 0 1 3710.dat
1 72 120 -120 10 1 0 0 0 1 0 0 0 1 3023b.dat
1 15 180 -120 130 1 0 0 0 1 0 0 0 1 3666.dat
1 72 150 -120 170 1 0 0 0 1 0 0 0 1 3623.dat
1 15 170 -120 10 1 0 0 0 1 0 0 0 1 3623.dat
1 72 200 -120 90 0 0 1 0 1 0 -1 0 0 3021.dat
1 72 200 -120 150 1 0 0 0 1 0 0 0 1 3023b.dat
1 15 220 -120 30 1 0 0 0 1 0 0 0 1 3023b.dat
1 15 230 -120 80 0 0 1 0 1 0 -1 0 0 3710.dat
1 323 230 -120 150 1 0 0 0 1 0 0 0 1 3024.dat
1 15 10 -120 80 0 0 1 0 1 0 -1 0 0 3710.dat
1 72 10 -120 130 1 0 0 0 1 0 0 0 1 3024.dat
1 15 60 -128 60 1 0 0 0 1 0 0 0 1 3795.dat
1 15 230 -128 90 1 0 0 0 1 0 0 0 1 3623.dat
1 15 30 -128 100 1 0 0 0 1 0 0 0 1 3021.dat
1 15 80 -128 130 1 0 0 0 1 0 0 0 1 3460.dat
1 15 40 -128 30 1 0 0 0 1 0 0 0 1 3023b.dat
1 15 40 -128 150 1 0 0 0 1 0 0 0 1 3023b.dat
1 323 70 -128 30 1 0 0 0 1 0 0 0 1 3024.dat
1 72 90 -128 110 1 0 0 0 1 0 0 0 1 3623.dat
1 72 80 -128 150 1 0 0 0 1 0 0 0 1 3023b.dat
1 72 140 -128 30 1 0 0 0 1 0 0 0 1 3666.dat
1 15 140 -128 150 1 0 0 0 1 0 0 0 1 3710.dat
1 15 180 -128 50 1 0 0 0 1 0 0 0 1 3666.dat
1 72 150 -128 170 1 0 0 0 1 0 0 0 1 3623.dat
1 72 130 -128 10 1 0 0 0 1 0 0 0 1 3024.dat
1 15 170 -128 10 1 0 0 0 1 0 0 0 1 3623.dat
1 15 200 -128 130 1 0 0 0 1 0 0 0 1 3710.dat
1 15 210 -128 70 1 0 0 0 1 0 0 0 1 3623.dat
1 15 210 -128 110 1 0 0 0 1 0 0 0 1 3623.dat
1 72 200 -128 150 1 0 0 0 1 0 0 0 1 3023b.dat
1 15 210 -128 30 1 0 0 0 1 0 0 0 1 3024.dat
1 72 80 -136 120 1 0 0 0 1 0 0 0 1 3795.dat
1 15 240 -136 90 0 0 1 0 1 0 -1 0 0 3021.dat
1 15 40 -136 60 0 0 1 0 1 0 -1 0 0 3020.dat
1 15 50 -136 150 1 0 0 0 1 0 0 0 1 3623.dat
1 72 120 -136 40 1 0 0 0 1 0 0 0 1 3795.dat
1 72 90 -136 70 1 0 0 0 1 0 0 0 1 3623.dat
1 72 90 -136 150 1 0 0 0 1 0 0 0 1 3024.dat
1 323 140 -136 150 1 0 0 0 1 0 0 0 1 3710.dat
1 72 130 -136 10 1 0 0 0 1 0 0 0 1 3024.dat
1 15 170 -136 10 1 0 0 0 1 0 0 0 1 3623.dat
1 72 180 -136 130 1 0 0 0 1 0 0 0 1 3710.dat
1 72 160 -136 170 1 0 0 0 1 0 0 0 1 3023b.dat
1 323 200 -136 40 1 0 0 0 1 0 0 0 1 3022.dat
1 72 200 -136 110 1 0 0 0 1 0 0 0 1 3023b.dat
1 72 200 -136 150 1 0 0 0 1 0 0 0 1 3023b.dat
1 72 210 -136 80 0 0 1 0 1 0 -1 0 0 3023b.dat
1 15 230 -136 50 1 0 0 0 1 0 0 0 1 3024.dat
1 72 230 -136 130 1 0 0 0 1 0 0 0 1 3024.dat
1 15 10 -136 80 0 0 1 0 1 0 -1 0 0 3710.dat
1 15 10 -136 130 1 0 0 0 1 0 0 0 1 3024.dat
1 15 160 -144 60 1 0 0 0 1 0 0 0 1 3034.dat
1 15 160 -144 120 1 0 0 0 1 0 0 0 1 3034.dat
1 15 30 -144 80 1 0 0 0 1 0 0 0 1 3021.dat
1 15 40 -144 110 1 0 0 0 1 0 0 0 1 3710.dat
1 15 50 -144 40 1 0 0 0 1 0 0 0 1 3021.dat
1 15 50 -144 130 1 0 0 0 1 0 0 0 1 3623.dat
1 15 80 -144 150 1 0 0 0 1 0 0 0 1 3710.dat
1 72 70 -144 70 1 0 0 0 1 0 0 0 1 3024.dat
1 72 110 -144 30 1 0 0 0 1 0 0 0 1 3623.dat
1 15 130 -144 150 1 0 0 0 1 0 0 0 1 3024.dat
1 72 180 -144 150 1 0 0 0 1 0 0 0 1 3710.dat
1 15 160 -144 30 1 0 0 0 1 0 0 0 1 3023b.dat
1 72 200 -144 30 1 0 0 0 1 0 0 0 1 3023b.dat
1 15 230 -144 90 1 0 0 0 1 0 0 0 1 3623.dat
1 15 250 -144 70 1 0 0 0 1 0 0 0 1 3024.dat
1 15 250 -144 110 1 0 0 0 1 0 0 0 1 3024.dat
1 15 100 -152 60 1 0 0 0 1 0 0 0 1 3034.dat
1 72 40 -152 110 0 0 1 0 1 0 -1 0 0 3021.dat
1 15 60 -152 30 1 0 0 0 1 0 0 0 1 3023b.dat
1 72 50 -152 150 1 0 0 0 1 0 0 0 1 3024.dat
1 72 140 -152 120 1 0 0 0 1 0 0 0 1 3034.dat
1 15 100 -152 150 1 0 0 0 1 0 0 0 1 3710.dat
1 72 110 -152 30 1 0 0 0 1 0 0 0 1 3623.dat
1 323 150 -152 30 1 0 0 0 1 0 0 0 1 3024.dat
1 323 150 -152 150 1 0 0 0 1 0 0 0 1 3024.dat
1 15 170 -152 30 1 0 0 0 1 0 0 0 1 3024.dat
1 72 190 -152 150 1 0 0 0 1 0 0 0 1 3623.dat
1 72 200 -152 50 0 0 1 0 1 0 -1 0 0 3021.dat
1 15 230 -152 90 1 0 0 0 1 0 0 0 1 3623.dat
1 15 230 -152 60 0 0 1 0 1 0 -1 0 0 3023b.dat
1 15 230 -152 120 0 0 1 0 1 0 -1 0 0 3023b.dat
1 15 250 -152 70 1 0 0 0 1 0 0 0 1 3024.dat
1 15 250 -152 110 1 0 0 0 1 0 0 0 1 3024.dat
1 15 10 -152 90 0 0 1 0 1 0 -1 0 0 3623.dat
1 78 270 -160 70 1 0 0 0 1 0 0 0 1 3623.dat
1 78 260 -160 90 1 0 0 0 1 0 0 0 1 3710.dat
1 78 270 -160 110 1 0 0 0 1 0 0 0 1 3623.dat
1 72 60 -160 100 0 0 1 0 1 0 -1 0 0 3020.dat
1 72 100 -160 50 1 0 0 0 1 0 0 0 1 3460.dat
1 15 30 -160 80 0 0 1 0 1 0 -1 0 0 3023b.dat
1 72 30 -160 120 0 0 1 0 1 0 -1 0 0 3023b.dat
1 15 90 -160 30 1 0 0 0 1 0 0 0 1 3623.dat
1 15 100 -160 150 1 0 0 0 1 0 0 0 1 3710.dat
1 72 160 -160 70 1 0 0 0 1 0 0 0 1 3460.dat
1 15 160 -160 120 1 0 0 0 1 0 0 0 1 3034.dat
1 72 140 -160 30 1 0 0 0 1 0 0 0 1 3023b.dat
1 15 150 -160 150 1 0 0 0 1 0 0 0 1 3024.dat
1 15 180 -160 30 1 0 0 0 1 0 0 0 1 3023b.dat
1 72 190 -160 150 1 0 0 0 1 0 0 0 1 3623.dat
1 15 210 -160 50 1 0 0 0 1 0 0 0 1 3623.dat
1 72 210 -160 30 1 0 0 0 1 0 0 0 1 3024.dat
1 78 280 -168 80 1 0 0 0 1 0 0 0 1 3031.dat
1 19 260 -168 130 1 0 0 0 1 0 0 0 1 3666.dat
1 15 80 -168 80 0 0 1 0 1 0 -1 0 0 3020.dat
1 15 220 -168 80 0 0 1 0 1 0 -1 0 0 3020.dat
1 72 40 -168 60 1 0 0 0 1 0 0 0 1 3022.dat
1 15 40 -168 90 1 0 0 0 1 0 0 0 1 3023b.dat
1 72 40 -168 110 1 0 0 0 1 0 0 0 1 3023b.dat
1 72 50 -168 130 1 0 0 0 1 0 0 0 1 3024.dat
1 323 70 -168 130 1 0 0 0 1 0 0 0 1 3024.dat
1 15 140 -168 130 1 0 0 0 1 0 0 0 1 3666.dat
1 72 140 -168 60 1 0 0 0 1 0 0 0 1 3020.dat
1 72 140 -168 110 1 0 0 0 1 0 0 0 1 3710.dat
1 15 130 -168 150 1 0 0 0 1 0 0 0 1 3623.dat
1 72 120 -168 30 1 0 0 0 1 0 0 0 1 3023b.dat
1 323 150 -168 30 1 0 0 0 1 0 0 0 1 3024.dat
1 72 180 -168 150 1 0 0 0 1 0 0 0 1 3023b.dat
1 15 180 -168 30 1 0 0 0 1 0 0 0 1 3023b.dat
1 72 190 -168 60 0 0 1 0 1 0 -1 0 0 3023b.dat
1 72 190 -168 110 1 0 0 0 1 0 0 0 1 3024.dat
1 15 80 -176 80 1 0 0 0 1 0 0 0 1 3031.dat
1 15 130 -176 100 0 0 1 0 1 0 -1 0 0 3710.dat
1 19 280 -176 80 0 0 1 0 1 0 -1 0 0 3795.dat
1 19 310 -176 80 0 0 1 0 1 0 -1 0 0 3666.dat
1 15 30 -176 90 0 0 1 0 1 0 -1 0 0 3623.dat
1 72 50 -176 130 1 0 0 0 1 0 0 0 1 3024.dat
1 323 70 -176 130 1 0 0 0 1 0 0 0 1 3024.dat
1 15 100 -176 130 1 0 0 0 1 0 0 0 1 3023b.dat
1 72 160 -176 50 1 0 0 0 1 0 0 0 1 3710.dat
1 15 170 -176 30 1 0 0 0 1 0 0 0 1 3623.dat
1 72 200 -176 70 1 0 0 0 1 0 0 0 1 3666.dat
1 15 200 -176 120 1 0 0 0 1 0 0 0 1 3795.dat
1 72 170 -176 150 1 0 0 0 1 0 0 0 1 3623.dat
1 15 230 -176 50 1 0 0 0 1 0 0 0 1 3623.dat
1 72 230 -176 90 1 0 0 0 1 0 0 0 1 3623.dat
1 15 180 -184 80 1 0 0 0 1 0 0 0 1 3032.dat
1 15 250 -184 50 0 0 1 0 1 0 -1 0 0 3623.dat
1 15 250 -184 130 0 0 1 0 1 0 -1 0 0 3623.dat
1 78 320 -184 90 0 0 1 0 1 0 -1 0 0 3021.dat
1 15 80 -184 80 1 0 0 0 1 0 0 0 1 3020.dat
1 15 80 -184 110 1 0 0 0 1 0 0 0 1 3710.dat
1 15 110 -184 50 1 0 0 0 1 0 0 0 1 3024.dat
1 15 120 -184 130 1 0 0 0 1 0 0 0 1 3023b.dat
1 15 160 -184 30 1 0 0 0 1 0 0 0 1 3023b.dat
1 72 170 -184 130 1 0 0 0 1 0 0 0 1 3623.dat
1 15 220 -184 130 1 0 0 0 1 0 0 0 1 3023b.dat
1 78 280 -184 50 0 0 1 0 1 0 -1 0 0 3021.dat
1 78 280 -184 130 0 0 1 0 1 0 -1 0 0 3021.dat
1 78 290 -176 150 1 0 0 0 1 0 0 0 1 3623.dat
1 72 290 -184 90 1 0 0 0 1 0 0 0 1 3024.dat
1 78 310 -184 40 0 0 1 0 1 0 -1 0 0 3023b.dat
1 78 310 -184 140 0 0 1 0 1 0 -1 0 0 3023b.dat
1 78 300 -192 60 1 0 0 0 1 0 0 0 1 3020.dat
1 78 300 -192 120 1 0 0 0 1 0 0 0 1 3020.dat
1 15 160 -192 80 1 0 0 0 1 0 0 0 1 3795.dat
1 15 180 -192 110 1 0 0 0 1 0 0 0 1 3460.dat
1 15 180 -192 50 1 0 0 0 1 0 0 0 1 3666.dat
1 15 130 -192 130 1 0 0 0 1 0 0 0 1 3024.dat
1 72 170 -192 130 1 0 0 0 1 0 0 0 1 3623.dat
1 15 230 -192 130 1 0 0 0 1 0 0 0 1 3623.dat
1 72 240 -192 70 1 0 0 0 1 0 0 0 1 3023b.dat
1 72 230 -192 90 1 0 0 0 1 0 0 0 1 3024.dat
1 15 250 -192 40 0 0 1 0 1 0 -1 0 0 3023b.dat
1 15 260 -192 150 1 0 0 0 1 0 0 0 1 3023b.dat
1 78 290 -192 30 1 0 0 0 1 0 0 0 1 3623.dat
1 78 310 -192 90 1 0 0 0 1 0 0 0 1 3623.dat
1 78 300 -192 150 1 0 0 0 1 0 0 0 1 3023b.dat
1 15 240 -200 50 0 0 1 0 1 0 -1 0 0 3021.dat
1 15 240 -200 130 0 0 1 0 1 0 -1 0 0 3021.dat
1 15 160 -200 80 1 0 0 0 1 0 0 0 1 3020.dat
1 15 160 -200 110 1 0 0 0 1 0 0 0 1 3710.dat
1 15 180 -200 50 1 0 0 0 1 0 0 0 1 3710.dat
1 72 170 -200 130 1 0 0 0 1 0 0 0 1 3623.dat
1 15 210 -200 100 0 0 1 0 1 0 -1 0 0 3710.dat
1 78 280 -200 50 0 0 1 0 1 0 -1 0 0 3021.dat
1 78 300 -200 120 1 0 0 0 1 0 0 0 1 3020.dat
1 15 270 -200 150 1 0 0 0 1 0 0 0 1 3024.dat
1 78 310 -200 90 1 0 0 0 1 0 0 0 1 3623.dat
1 78 300 -200 150 1 0 0 0 1 0 0 0 1 3023b.dat
1 78 310 -200 50 0 0 1 0 1 0 -1 0 0 3623.dat
1 78 330 -200 60 0 0 1 0 1 0 -1 0 0 3023b.dat
1 15 180 -208 90 1 0 0 0 1 0 0 0 1 3710.dat
1 15 240 -208 70 1 0 0 0 1 0 0 0 1 3460.dat
1 15 240 -208 110 1 0 0 0 1 0 0 0 1 3460.dat
1 15 260 -208 50 1 0 0 0 1 0 0 0 1 3666.dat
1 15 260 -208 130 1 0 0 0 1 0 0 0 1 3666.dat
1 15 250 -208 30 1 0 0 0 1 0 0 0 1 3623.dat
1 15 250 -208 150 1 0 0 0 1 0 0 0 1 3623.dat
1 78 300 -208 30 1 0 0 0 1 0 0 0 1 3023b.dat
1 78 310 -208 90 1 0 0 0 1 0 0 0 1 3623.dat
1 78 300 -208 150 1 0 0 0 1 0 0 0 1 3023b.dat
1 78 330 -208 60 0 0 1 0 1 0 -1 0 0 3023b.dat
1 78 330 -208 120 0 0 1 0 1 0 -1 0 0 3023b.dat
1 72 190 -216 60 0 0 1 0 1 0 -1 0 0 3023b.dat
1 15 240 -216 120 1 0 0 0 1 0 0 0 1 3795.dat
1 15 220 -216 70 0 0 1 0 1 0 -1 0 0 3021.dat
1 323 190 -216 90 1 0 0 0 1 0 0 0 1 3024.dat
1 15 260 -216 150 1 0 0 0 1 0 0 0 1 3710.dat
1 15 250 -216 30 1 0 0 0 1 0 0 0 1 3623.dat
1 72 280 -216 60 1 0 0 0 1 0 0 0 1 3020.dat
1 78 310 -216 90 1 0 0 0 1 0 0 0 1 3623.dat
1 78 300 -216 30 1 0 0 0 1 0 0 0 1 3023b.dat
1 78 320 -216 120 1 0 0 0 1 0 0 0 1 3022.dat
1 78 310 -216 150 1 0 0 0 1 0 0 0 1 3024.dat
1 78 330 -216 60 0 0 1 0 1 0 -1 0 0 3023b.dat
1 15 220 -224 80 0 0 1 0 1 0 -1 0 0 3795.dat
1 15 280 -224 100 0 0 1 0 1 0 -1 0 0 3795.dat
1 323 190 -224 50 1 0 0 0 1 0 0 0 1 3024.dat
1 72 190 -224 70 1 0 0 0 1 0 0 0 1 3024.dat
1 323 190 -224 90 1 0 0 0 1 0 0 0 1 3024.dat
1 15 190 -224 120 0 0 1 0 1 0 -1 0 0 3023b.dat
1 15 240 -224 150 1 0 0 0 1 0 0 0 1 3023b.dat
1 15 270 -224 30 1 0 0 0 1 0 0 0 1 3623.dat
1 72 250 -224 60 0 0 1 0 1 0 -1 0 0 3023b.dat
1 72 250 -224 120 0 0 1 0 1 0 -1 0 0 3023b.dat
1 19 310 -224 80 0 0 1 0 1 0 -1 0 0 3666.dat
1 78 310 -224 150 1 0 0 0 1 0 0 0 1 3024.dat
1 15 240 -232 50 1 0 0 0 1 0 0 0 1 3666.dat
1 72 210 -232 80 1 0 0 0 1 0 0 0 1 3021.dat
1 15 240 -232 120 1 0 0 0 1 0 0 0 1 3795.dat
1 15 260 -232 30 1 0 0 0 1 0 0 0 1 3710.dat
1 15 260 -232 150 1 0 0 0 1 0 0 0 1 3710.dat
1 78 280 -232 70 1 0 0 0 1 0 0 0 1 3710.dat
1 78 290 -232 90 1 0 0 0 1 0 0 0 1 3623.dat
1 78 310 -232 50 1 0 0 0 1 0 0 0 1 3024.dat
1 78 310 -232 120 0 0 1 0 1 0 -1 0 0 3023b.dat
1 15 240 -240 50 1 0 0 0 1 0 0 0 1 3666.dat
1 323 240 -240 70 1 0 0 0 1 0 0 0 1 3666.dat
1 323 210 -240 90 1 0 0 0 1 0 0 0 1 3623.dat
1 15 240 -240 120 1 0 0 0 1 0 0 0 1 3795.dat
1 15 260 -240 150 1 0 0 0 1 0 0 0 1 3710.dat
1 15 260 -240 30 1 0 0 0 1 0 0 0 1 3710.dat
1 15 290 -240 90 1 0 0 0 1 0 0 0 1 3623.dat
1 15 310 -240 50 1 0 0 0 1 0 0 0 1 3024.dat
1 323 310 -240 70 1 0 0 0 1 0 0 0 1 3024.dat
1 323 310 -240 110 1 0 0 0 1 0 0 0 1 3024.dat
1 15 310 -240 130 1 0 0 0 1 0 0 0 1 3024.dat
1 15 240 -248 70 1 0 0 0 1 0 0 0 1 3666.dat
1 323 210 -248 90 1 0 0 0 1 0 0 0 1 3623.dat
1 72 240 -248 110 1 0 0 0 1 0 0 0 1 3666.dat
1 15 260 -248 50 1 0 0 0 1 0 0 0 1 3666.dat
1 15 240 -248 130 1 0 0 0 1 0 0 0 1 3710.dat
1 15 260 -248 30 1 0 0 0 1 0 0 0 1 3710.dat
1 15 260 -248 150 1 0 0 0 1 0 0 0 1 3710.dat
1 15 290 -248 90 1 0 0 0 1 0 0 0 1 3623.dat
1 15 290 -248 130 1 0 0 0 1 0 0 0 1 3024.dat
1 323 310 -248 70 1 0 0 0 1 0 0 0 1 3024.dat
1 323 310 -248 110 1 0 0 0 1 0 0 0 1 3024.dat
1 15 230 -256 80 0 0 1 0 1 0 -1 0 0 3460.dat
1 323 250 -256 80 0 0 1 0 1 0 -1 0 0 3460.dat
1 15 200 -256 70 1 0 0 0 1 0 0 0 1 3023b.dat
1 72 200 -256 100 1 0 0 0 1 0 0 0 1 3022.dat
1 15 210 -256 50 1 0 0 0 1 0 0 0 1 3024.dat
1 15 210 -256 130 1 0 0 0 1 0 0 0 1 3024.dat
1 15 270 -256 80 0 0 1 0 1 0 -1 0 0 3666.dat
1 15 270 -256 150 1 0 0 0 1 0 0 0 1 3024.dat
1 15 290 -256 40 0 0 1 0 1 0 -1 0 0 3023b.dat
1 72 290 -256 70 1 0 0 0 1 0 0 0 1 3024.dat
1 15 290 -256 90 1 0 0 0 1 0 0 0 1 3024.dat
1 72 290 -256 110 1 0 0 0 1 0 0 0 1 3024.dat
1 15 290 -256 130 1 0 0 0 1 0 0 0 1 3024.dat
1 72 220 -264 90 1 0 0 0 1 0 0 0 1 3710.dat
1 15 240 -264 60 1 0 0 0 1 0 0 0 1 3020.dat
1 15 240 -264 120 1 0 0 0 1 0 0 0 1 3020.dat
1 15 250 -264 150 1 0 0 0 1 0 0 0 1 3623.dat
1 15 230 -264 20 0 0 1 0 1 0 -1 0 0 3023b.dat
1 323 250 -264 20 0 0 1 0 1 0 -1 0 0 3023b.dat
1 15 280 -264 90 1 0 0 0 1 0 0 0 1 3023b.dat
1 15 270 -264 30 1 0 0 0 1 0 0 0 1 3024.dat
1 15 290 -264 50 1 0 0 0 1 0 0 0 1 3024.dat
1 72 290 -264 70 1 0 0 0 1 0 0 0 1 3024.dat
1 72 290 -264 110 1 0 0 0 1 0 0 0 1 3024.dat
1 15 290 -264 130 1 0 0 0 1 0 0 0 1 3024.dat
1 15 240 -272 70 1 0 0 0 1 0 0 0 1 3710.dat
1 323 240 -272 90 1 0 0 0 1 0 0 0 1 3710.dat
1 15 240 -272 110 1 0 0 0 1 0 0 0 1 3710.dat
1 15 250 -272 40 1 0 0 0 1 0 0 0 1 3021.dat
1 15 250 -272 140 1 0 0 0 1 0 0 0 1 3021.dat
1 15 240 -272 10 1 0 0 0 1 0 0 0 1 3023b.dat
1 15 290 -272 50 1 0 0 0 1 0 0 0 1 3024.dat
1 72 290 -272 70 1 0 0 0 1 0 0 0 1 3024.dat
1 15 290 -272 90 1 0 0 0 1 0 0 0 1 3024.dat
1 72 290 -272 110 1 0 0 0 1 0 0 0 1 3024.dat
1 15 290 -272 130 1 0 0 0 1 0 0 0 1 3024.dat
1 15 240 -280 80 1 0 0 0 1 0 0 0 1 3020.dat
1 15 240 -280 110 1 0 0 0 1 0 0 0 1 3710.dat
1 15 240 -280 30 0 0 1 0 1 0 -1 0 0 3021.dat
1 15 240 -280 150 0 0 1 0 1 0 -1 0 0 3021.dat
1 15 240 -272 170 1 0 0 0 1 0 0 0 1 3023b.dat
1 15 230 -264 170 1 0 0 0 1 0 0 0 1 3024.dat
1 323 250 -264 170 1 0 0 0 1 0 0 0 1 3024.dat
1 15 230 -256 170 1 0 0 0 1 0 0 0 1 3024.dat
1 323 250 -256 170 1 0 0 0 1 0 0 0 1 3024.dat
1 15 270 -280 40 0 0 1 0 1 0 -1 0 0 3023b.dat
1 15 270 -280 140 0 0 1 0 1 0 -1 0 0 3023b.dat
1 15 290 -280 50 1 0 0 0 1 0 0 0 1 3024.dat
1 323 290 -280 70 1 0 0 0 1 0 0 0 1 3024.dat
1 15 290 -280 90 1 0 0 0 1 0 0 0 1 3024.dat
1 323 290 -280 110 1 0 0 0 1 0 0 0 1 3024.dat
1 15 290 -280 130 1 0 0 0 1 0 0 0 1 3024.dat
1 15 240 -288 90 1 0 0 0 1 0 0 0 1 3710.dat
1 15 240 -288 40 0 0 1 0 1 0 -1 0 0 3020.dat
1 15 240 -288 140 0 0 1 0 1 0 -1 0 0 3020.dat
1 15 270 -288 60 0 0 1 0 1 0 -1 0 0 3023b.dat
1 15 280 -288 110 1 0 0 0 1 0 0 0 1 3023b.dat
1 15 270 -288 130 1 0 0 0 1 0 0 0 1 3024.dat
1 15 290 -288 80 0 0 1 0 1 0 -1 0 0 3023b.dat
1 78 230 -296 50 1 0 0 0 1 0 0 0 1 3024.dat
1 15 240 -296 90 0 0 1 0 1 0 -1 0 0 3021.dat
1 78 230 -296 130 1 0 0 0 1 0 0 0 1 3024.dat
1 84 250 -296 50 1 0 0 0 1 0 0 0 1 3024.dat
1 84 250 -296 130 1 0 0 0 1 0 0 0 1 3024.dat
1 15 270 -296 80 0 0 1 0 1 0 -1 0 0 3710.dat
1 15 270 -296 130 1 0 0 0 1 0 0 0 1 3024.dat
1 84 250 -304 70 1 0 0 0 1 0 0 0 1 3623.dat
1 84 250 -304 110 1 0 0 0 1 0 0 0 1 3623.dat
1 84 260 -304 50 1 0 0 0 1 0 0 0 1 3023b.dat
1 15 260 -304 90 1 0 0 0 1 0 0 0 1 3023b.dat
1 84 260 -304 130 1 0 0 0 1 0 0 0 1 3023b.dat
1 84 250 -312 60 0 0 1 0 1 0 -1 0 0 3023b.dat
1 84 260 -312 120 1 0 0 0 1 0 0 0 1 3022.dat
1 84 270 -312 50 1 0 0 0 1 0 0 0 1 3024.dat
1 84 250 -320 60 0 0 1 0 1 0 -1 0 0 3023b.dat
1 84 250 -320 120 0 0 1 0 1 0 -1 0 0 3023b.dat
0 STEP
