0 heart
0 Name: heart.ldr
0 Author: brick-check

0 // heart
1 15 80 -8 20 1 0 0 0 1 0 0 0 1 3034.dat
1 4 70 -32 10 1 0 0 0 1 0 0 0 1 3005.dat
1 4 70 -56 10 1 0 0 0 1 0 0 0 1 3622.dat
1 4 50 -80 10 1 0 0 0 1 0 0 0 1 3622.dat
1 4 100 -80 10 1 0 0 0 1 0 0 0 1 3004.dat
1 4 40 -104 10 1 0 0 0 1 0 0 0 1 3010.dat
1 4 110 -104 10 1 0 0 0 1 0 0 0 1 3622.dat
1 4 30 -128 10 1 0 0 0 1 0 0 0 1 3622.dat
1 4 100 -128 10 1 0 0 0 1 0 0 0 1 3010.dat
1 4 40 -152 10 1 0 0 0 1 0 0 0 1 3004.dat
1 4 100 -152 10 1 0 0 0 1 0 0 0 1 3004.dat
0 STEP
