0 unit-2
0 Name: unit-2.ldr
0 Author: brick-check

0 // unit-2
1 72 10 -24 20 0 0 1 0 1 0 -1 0 0 3004.dat
1 72 70 -24 20 0 0 1 0 1 0 -1 0 0 3004.dat
1 72 40 -32 20 1 0 0 0 1 0 0 0 1 3020.dat
1 15 40 -56 20 1 0 0 0 1 0 0 0 1 3001.dat
1 15 40 -80 20 1 0 0 0 1 0 0 0 1 3001.dat
1 1 40 -88 20 1 0 0 0 1 0 0 0 1 3795.dat
1 71 -10 -80 10 1 0 0 0 1 0 0 0 1 3005.dat
1 71 -10 -56 10 1 0 0 0 1 0 0 0 1 3005.dat
1 71 90 -80 10 1 0 0 0 1 0 0 0 1 3005.dat
1 71 90 -56 10 1 0 0 0 1 0 0 0 1 3005.dat
1 72 -10 -32 10 1 0 0 0 1 0 0 0 1 3024.dat
1 72 90 -32 10 1 0 0 0 1 0 0 0 1 3024.dat
1 72 40 -96 20 1 0 0 0 1 0 0 0 1 3022.dat
1 15 40 -104 20 1 0 0 0 1 0 0 0 1 3020.dat
1 15 10 -128 10 1 0 0 0 1 0 0 0 1 3005.dat
1 0 40 -128 10 1 0 0 0 1 0 0 0 1 3004.dat
1 15 70 -128 10 1 0 0 0 1 0 0 0 1 3005.dat
1 15 40 -128 30 1 0 0 0 1 0 0 0 1 3010.dat
1 15 40 -136 20 1 0 0 0 1 0 0 0 1 3020.dat
1 1 50 -144 30 1 0 0 0 1 0 0 0 1 3024.dat
1 14 50 -152 30 1 0 0 0 1 0 0 0 1 3070b.dat
0 STEP
