0 Microduck (brickified)
0 Name: microduck-bricks.ldr
0 Author: brick-check

0 // built bottom-up
1 25 60 -8 140 1 0 0 0 1 0 0 0 1 3020.dat
1 25 60 -8 170 1 0 0 0 1 0 0 0 1 3710.dat
1 25 220 -8 140 1 0 0 0 1 0 0 0 1 3020.dat
1 25 190 -8 170 1 0 0 0 1 0 0 0 1 3024.dat
1 25 240 -8 170 1 0 0 0 1 0 0 0 1 3023b.dat
1 25 20 -16 120 0 0 1 0 1 0 -1 0 0 3020.dat
1 25 50 -16 120 0 0 1 0 1 0 -1 0 0 3710.dat
1 25 220 -16 120 0 0 1 0 1 0 -1 0 0 3020.dat
1 25 250 -16 110 0 0 1 0 1 0 -1 0 0 3623.dat
1 25 40 -16 170 1 0 0 0 1 0 0 0 1 3710.dat
1 25 80 -16 130 0 0 1 0 1 0 -1 0 0 3021.dat
1 25 190 -16 120 0 0 1 0 1 0 -1 0 0 3023b.dat
1 25 220 -16 170 1 0 0 0 1 0 0 0 1 3710.dat
1 25 90 -16 170 1 0 0 0 1 0 0 0 1 3024.dat
1 72 190 -16 150 1 0 0 0 1 0 0 0 1 3024.dat
1 72 250 -16 150 1 0 0 0 1 0 0 0 1 3024.dat
1 25 60 -24 120 1 0 0 0 1 0 0 0 1 3031.dat
1 25 220 -24 100 1 0 0 0 1 0 0 0 1 3020.dat
1 25 60 -24 170 1 0 0 0 1 0 0 0 1 3710.dat
1 25 210 -24 130 1 0 0 0 1 0 0 0 1 3623.dat
1 72 210 -24 150 1 0 0 0 1 0 0 0 1 3623.dat
1 25 220 -24 170 1 0 0 0 1 0 0 0 1 3710.dat
1 72 250 -24 130 1 0 0 0 1 0 0 0 1 3024.dat
1 25 250 -24 150 1 0 0 0 1 0 0 0 1 3024.dat
1 25 10 -24 120 0 0 1 0 1 0 -1 0 0 3710.dat
1 25 10 -24 170 1 0 0 0 1 0 0 0 1 3024.dat
1 25 10 -32 140 0 0 1 0 1 0 -1 0 0 3710.dat
1 72 40 -32 140 0 0 1 0 1 0 -1 0 0 3020.dat
1 72 70 -32 140 0 0 1 0 1 0 -1 0 0 3710.dat
1 25 90 -32 110 1 0 0 0 1 0 0 0 1 3024.dat
1 72 90 -32 140 0 0 1 0 1 0 -1 0 0 3023b.dat
1 25 90 -32 170 1 0 0 0 1 0 0 0 1 3024.dat
1 72 210 -32 120 1 0 0 0 1 0 0 0 1 3021.dat
1 72 210 -32 150 1 0 0 0 1 0 0 0 1 3623.dat
1 25 190 -32 170 1 0 0 0 1 0 0 0 1 3024.dat
1 72 220 -32 170 1 0 0 0 1 0 0 0 1 3023b.dat
1 72 250 -32 110 1 0 0 0 1 0 0 0 1 3024.dat
1 25 250 -32 150 0 0 1 0 1 0 -1 0 0 3623.dat
1 72 40 -40 140 0 0 1 0 1 0 -1 0 0 3020.dat
1 72 70 -40 140 0 0 1 0 1 0 -1 0 0 3710.dat
1 25 90 -40 120 0 0 1 0 1 0 -1 0 0 3023b.dat
1 72 90 -40 150 1 0 0 0 1 0 0 0 1 3024.dat
1 25 90 -40 170 1 0 0 0 1 0 0 0 1 3024.dat
1 25 190 -40 110 1 0 0 0 1 0 0 0 1 3024.dat
1 72 210 -40 140 1 0 0 0 1 0 0 0 1 3021.dat
1 25 190 -40 170 1 0 0 0 1 0 0 0 1 3024.dat
1 72 230 -40 110 1 0 0 0 1 0 0 0 1 3623.dat
1 72 230 -40 170 1 0 0 0 1 0 0 0 1 3623.dat
1 25 250 -40 140 0 0 1 0 1 0 -1 0 0 3023b.dat
1 25 10 -40 150 0 0 1 0 1 0 -1 0 0 3623.dat
1 25 10 -48 140 0 0 1 0 1 0 -1 0 0 3023b.dat
1 72 50 -48 140 1 0 0 0 1 0 0 0 1 3021.dat
1 72 50 -48 170 1 0 0 0 1 0 0 0 1 3623.dat
1 0 90 -48 110 1 0 0 0 1 0 0 0 1 3024.dat
1 25 90 -48 140 0 0 1 0 1 0 -1 0 0 3023b.dat
1 0 190 -48 110 1 0 0 0 1 0 0 0 1 3024.dat
1 72 210 -48 140 1 0 0 0 1 0 0 0 1 3021.dat
1 72 230 -48 170 1 0 0 0 1 0 0 0 1 3623.dat
1 25 250 -48 140 0 0 1 0 1 0 -1 0 0 3023b.dat
1 72 220 -56 170 1 0 0 0 1 0 0 0 1 3710.dat
1 72 40 -56 150 0 0 1 0 1 0 -1 0 0 3021.dat
1 72 70 -56 150 0 0 1 0 1 0 -1 0 0 3623.dat
1 0 90 -56 110 1 0 0 0 1 0 0 0 1 3024.dat
1 25 90 -56 140 0 0 1 0 1 0 -1 0 0 3023b.dat
1 0 190 -56 110 1 0 0 0 1 0 0 0 1 3024.dat
1 25 190 -56 140 0 0 1 0 1 0 -1 0 0 3023b.dat
1 72 220 -56 140 1 0 0 0 1 0 0 0 1 3022.dat
1 72 250 -56 130 1 0 0 0 1 0 0 0 1 3024.dat
1 25 250 -56 150 1 0 0 0 1 0 0 0 1 3024.dat
1 25 10 -56 140 0 0 1 0 1 0 -1 0 0 3023b.dat
1 72 60 -64 140 1 0 0 0 1 0 0 0 1 3020.dat
1 72 50 -64 170 1 0 0 0 1 0 0 0 1 3623.dat
1 0 90 -64 110 1 0 0 0 1 0 0 0 1 3024.dat
1 0 190 -64 110 1 0 0 0 1 0 0 0 1 3024.dat
1 72 220 -64 140 1 0 0 0 1 0 0 0 1 3020.dat
1 72 230 -64 170 1 0 0 0 1 0 0 0 1 3623.dat
1 72 40 -72 160 0 0 1 0 1 0 -1 0 0 3020.dat
1 72 70 -72 160 0 0 1 0 1 0 -1 0 0 3710.dat
1 72 220 -72 160 0 0 1 0 1 0 -1 0 0 3020.dat
1 72 250 -72 160 0 0 1 0 1 0 -1 0 0 3710.dat
1 0 90 -72 110 1 0 0 0 1 0 0 0 1 3024.dat
1 72 90 -72 140 0 0 1 0 1 0 -1 0 0 3023b.dat
1 0 190 -72 110 1 0 0 0 1 0 0 0 1 3024.dat
1 72 190 -72 140 0 0 1 0 1 0 -1 0 0 3023b.dat
1 72 60 -80 140 1 0 0 0 1 0 0 0 1 3020.dat
1 72 50 -80 170 1 0 0 0 1 0 0 0 1 3623.dat
1 0 90 -80 110 1 0 0 0 1 0 0 0 1 3024.dat
1 0 190 -80 110 1 0 0 0 1 0 0 0 1 3024.dat
1 72 220 -80 140 1 0 0 0 1 0 0 0 1 3020.dat
1 72 230 -80 170 1 0 0 0 1 0 0 0 1 3623.dat
1 72 250 -80 190 1 0 0 0 1 0 0 0 1 3024.dat
1 72 30 -88 180 1 0 0 0 1 0 0 0 1 3021.dat
1 72 10 -80 190 1 0 0 0 1 0 0 0 1 3024.dat
1 72 70 -88 180 0 0 1 0 1 0 -1 0 0 3023b.dat
1 72 230 -88 190 1 0 0 0 1 0 0 0 1 3623.dat
1 72 60 -88 150 1 0 0 0 1 0 0 0 1 3710.dat
1 0 90 -88 110 1 0 0 0 1 0 0 0 1 3024.dat
1 72 90 -88 130 1 0 0 0 1 0 0 0 1 3024.dat
1 0 190 -88 110 1 0 0 0 1 0 0 0 1 3024.dat
1 72 190 -88 140 0 0 1 0 1 0 -1 0 0 3023b.dat
1 72 230 -88 150 1 0 0 0 1 0 0 0 1 3623.dat
1 71 220 -88 170 1 0 0 0 1 0 0 0 1 3023b.dat
1 72 250 -88 170 1 0 0 0 1 0 0 0 1 3024.dat
1 72 30 -96 160 1 0 0 0 1 0 0 0 1 3021.dat
1 72 250 -96 180 1 0 0 0 1 0 0 0 1 3021.dat
1 72 30 -96 190 1 0 0 0 1 0 0 0 1 3623.dat
1 15 70 -96 180 0 0 1 0 1 0 -1 0 0 3023b.dat
1 0 90 -96 110 1 0 0 0 1 0 0 0 1 3024.dat
1 72 90 -96 140 0 0 1 0 1 0 -1 0 0 3023b.dat
1 0 190 -96 110 1 0 0 0 1 0 0 0 1 3024.dat
1 72 190 -96 140 0 0 1 0 1 0 -1 0 0 3023b.dat
1 15 210 -96 180 0 0 1 0 1 0 -1 0 0 3023b.dat
1 72 240 -96 150 1 0 0 0 1 0 0 0 1 3023b.dat
1 15 70 -104 170 0 0 1 0 1 0 -1 0 0 3623.dat
1 72 220 -104 150 1 0 0 0 1 0 0 0 1 3710.dat
1 72 40 -104 170 0 0 1 0 1 0 -1 0 0 3021.dat
1 0 90 -104 110 1 0 0 0 1 0 0 0 1 3024.dat
1 72 90 -104 140 0 0 1 0 1 0 -1 0 0 3023b.dat
1 0 190 -104 110 1 0 0 0 1 0 0 0 1 3024.dat
1 72 190 -104 130 1 0 0 0 1 0 0 0 1 3024.dat
1 15 230 -104 170 1 0 0 0 1 0 0 0 1 3623.dat
1 15 210 -104 190 1 0 0 0 1 0 0 0 1 3024.dat
1 72 250 -104 190 1 0 0 0 1 0 0 0 1 3623.dat
1 72 270 -104 170 1 0 0 0 1 0 0 0 1 3024.dat
1 72 10 -104 170 0 0 1 0 1 0 -1 0 0 3623.dat
1 72 30 -112 180 0 0 1 0 1 0 -1 0 0 3710.dat
1 71 50 -112 190 0 0 1 0 1 0 -1 0 0 3623.dat
1 71 210 -112 200 0 0 1 0 1 0 -1 0 0 3023b.dat
1 72 240 -112 180 0 0 1 0 1 0 -1 0 0 3020.dat
1 72 10 -112 170 0 0 1 0 1 0 -1 0 0 3623.dat
1 72 50 -112 150 1 0 0 0 1 0 0 0 1 3024.dat
1 15 70 -112 150 1 0 0 0 1 0 0 0 1 3024.dat
1 72 70 -112 170 1 0 0 0 1 0 0 0 1 3024.dat
1 15 70 -112 190 1 0 0 0 1 0 0 0 1 3024.dat
1 0 90 -112 110 1 0 0 0 1 0 0 0 1 3024.dat
1 72 90 -112 140 0 0 1 0 1 0 -1 0 0 3023b.dat
1 0 190 -112 110 1 0 0 0 1 0 0 0 1 3024.dat
1 72 190 -112 140 0 0 1 0 1 0 -1 0 0 3023b.dat
1 15 210 -112 150 1 0 0 0 1 0 0 0 1 3024.dat
1 72 210 -112 170 1 0 0 0 1 0 0 0 1 3024.dat
1 72 270 -112 180 0 0 1 0 1 0 -1 0 0 3023b.dat
1 72 20 -120 170 0 0 1 0 1 0 -1 0 0 3021.dat
1 72 40 -120 210 1 0 0 0 1 0 0 0 1 3023b.dat
1 15 60 -120 170 0 0 1 0 1 0 -1 0 0 3021.dat
1 0 90 -120 110 1 0 0 0 1 0 0 0 1 3024.dat
1 72 90 -120 140 0 0 1 0 1 0 -1 0 0 3023b.dat
1 0 190 -120 110 1 0 0 0 1 0 0 0 1 3024.dat
1 72 190 -120 140 0 0 1 0 1 0 -1 0 0 3023b.dat
1 15 210 -120 170 0 0 1 0 1 0 -1 0 0 3623.dat
1 71 210 -120 210 1 0 0 0 1 0 0 0 1 3024.dat
1 72 240 -120 180 0 0 1 0 1 0 -1 0 0 3020.dat
1 72 270 -120 180 0 0 1 0 1 0 -1 0 0 3023b.dat
1 72 20 -128 190 0 0 1 0 1 0 -1 0 0 3021.dat
1 72 250 -128 200 1 0 0 0 1 0 0 0 1 3021.dat
1 71 50 -128 180 0 0 1 0 1 0 -1 0 0 3710.dat
1 15 70 -128 170 0 0 1 0 1 0 -1 0 0 3623.dat
1 0 90 -128 110 1 0 0 0 1 0 0 0 1 3024.dat
1 72 90 -128 140 0 0 1 0 1 0 -1 0 0 3023b.dat
1 0 190 -128 110 1 0 0 0 1 0 0 0 1 3024.dat
1 72 190 -128 140 0 0 1 0 1 0 -1 0 0 3023b.dat
1 15 210 -128 170 0 0 1 0 1 0 -1 0 0 3623.dat
1 71 210 -128 210 1 0 0 0 1 0 0 0 1 3024.dat
1 72 250 -128 170 1 0 0 0 1 0 0 0 1 3623.dat
1 0 140 -136 110 1 0 0 0 1 0 0 0 1 3666.dat
1 72 140 -136 140 1 0 0 0 1 0 0 0 1 3795.dat
1 72 20 -136 190 0 0 1 0 1 0 -1 0 0 3021.dat
1 71 50 -136 190 0 0 1 0 1 0 -1 0 0 3623.dat
1 15 70 -136 180 0 0 1 0 1 0 -1 0 0 3023b.dat
1 15 210 -136 170 1 0 0 0 1 0 0 0 1 3024.dat
1 71 230 -136 190 1 0 0 0 1 0 0 0 1 3623.dat
1 71 210 -136 210 1 0 0 0 1 0 0 0 1 3024.dat
1 72 250 -136 170 1 0 0 0 1 0 0 0 1 3623.dat
1 72 250 -136 210 1 0 0 0 1 0 0 0 1 3623.dat
1 72 270 -136 190 1 0 0 0 1 0 0 0 1 3024.dat
1 72 20 -144 180 0 0 1 0 1 0 -1 0 0 3020.dat
1 71 50 -144 160 0 0 1 0 1 0 -1 0 0 3023b.dat
1 0 80 -144 110 1 0 0 0 1 0 0 0 1 3023b.dat
1 71 210 -144 160 0 0 1 0 1 0 -1 0 0 3023b.dat
1 72 240 -144 180 0 0 1 0 1 0 -1 0 0 3020.dat
1 72 270 -144 180 0 0 1 0 1 0 -1 0 0 3710.dat
1 72 50 -144 200 0 0 1 0 1 0 -1 0 0 3023b.dat
1 72 140 -144 140 1 0 0 0 1 0 0 0 1 3795.dat
1 72 110 -144 110 1 0 0 0 1 0 0 0 1 3024.dat
1 0 130 -144 110 1 0 0 0 1 0 0 0 1 3024.dat
1 72 150 -144 110 1 0 0 0 1 0 0 0 1 3024.dat
1 0 170 -144 110 1 0 0 0 1 0 0 0 1 3024.dat
1 72 190 -144 110 1 0 0 0 1 0 0 0 1 3024.dat
1 72 210 -144 190 1 0 0 0 1 0 0 0 1 3024.dat
1 71 210 -144 210 1 0 0 0 1 0 0 0 1 3024.dat
1 72 30 -152 160 0 0 1 0 1 0 -1 0 0 3710.dat
1 72 250 -152 160 0 0 1 0 1 0 -1 0 0 3710.dat
1 72 20 -152 210 1 0 0 0 1 0 0 0 1 3023b.dat
1 71 50 -152 180 0 0 1 0 1 0 -1 0 0 3710.dat
1 0 120 -152 110 1 0 0 0 1 0 0 0 1 3666.dat
1 72 140 -152 140 1 0 0 0 1 0 0 0 1 3795.dat
1 0 190 -152 110 1 0 0 0 1 0 0 0 1 3024.dat
1 71 210 -152 180 0 0 1 0 1 0 -1 0 0 3710.dat
1 72 230 -152 180 0 0 1 0 1 0 -1 0 0 3710.dat
1 72 260 -152 210 1 0 0 0 1 0 0 0 1 3023b.dat
1 72 270 -152 170 0 0 1 0 1 0 -1 0 0 3623.dat
1 72 10 -152 170 0 0 1 0 1 0 -1 0 0 3623.dat
1 72 20 -160 160 0 0 1 0 1 0 -1 0 0 3020.dat
1 15 120 -160 130 1 0 0 0 1 0 0 0 1 3460.dat
1 15 60 -160 150 1 0 0 0 1 0 0 0 1 3023b.dat
1 15 210 -160 140 0 0 1 0 1 0 -1 0 0 3023b.dat
1 72 240 -160 160 0 0 1 0 1 0 -1 0 0 3020.dat
1 72 270 -160 160 0 0 1 0 1 0 -1 0 0 3710.dat
1 72 50 -160 180 0 0 1 0 1 0 -1 0 0 3023b.dat
1 71 50 -160 210 1 0 0 0 1 0 0 0 1 3024.dat
1 0 120 -160 110 1 0 0 0 1 0 0 0 1 3666.dat
1 72 140 -160 150 1 0 0 0 1 0 0 0 1 3666.dat
1 0 190 -160 110 1 0 0 0 1 0 0 0 1 3024.dat
1 72 210 -160 170 1 0 0 0 1 0 0 0 1 3024.dat
1 71 210 -160 200 0 0 1 0 1 0 -1 0 0 3023b.dat
1 72 20 -168 140 0 0 1 0 1 0 -1 0 0 3020.dat
1 15 80 -168 120 1 0 0 0 1 0 0 0 1 3020.dat
1 15 160 -168 110 0 0 1 0 1 0 -1 0 0 3021.dat
1 15 190 -168 110 0 0 1 0 1 0 -1 0 0 3623.dat
1 15 210 -168 130 0 0 1 0 1 0 -1 0 0 3623.dat
1 72 240 -168 140 0 0 1 0 1 0 -1 0 0 3020.dat
1 72 270 -168 140 0 0 1 0 1 0 -1 0 0 3710.dat
1 72 20 -168 190 1 0 0 0 1 0 0 0 1 3023b.dat
1 71 50 -168 180 0 0 1 0 1 0 -1 0 0 3710.dat
1 15 70 -168 150 1 0 0 0 1 0 0 0 1 3024.dat
1 72 100 -168 150 1 0 0 0 1 0 0 0 1 3023b.dat
1 0 130 -168 110 1 0 0 0 1 0 0 0 1 3024.dat
1 72 130 -168 130 1 0 0 0 1 0 0 0 1 3024.dat
1 72 170 -168 150 1 0 0 0 1 0 0 0 1 3623.dat
1 71 210 -168 190 0 0 1 0 1 0 -1 0 0 3623.dat
1 72 250 -168 190 1 0 0 0 1 0 0 0 1 3623.dat
1 15 140 -176 100 1 0 0 0 1 0 0 0 1 3795.dat
1 72 200 -176 140 1 0 0 0 1 0 0 0 1 3034.dat
1 71 220 -176 190 0 0 1 0 1 0 -1 0 0 3021.dat
1 72 20 -176 140 0 0 1 0 1 0 -1 0 0 3020.dat
1 72 20 -176 190 1 0 0 0 1 0 0 0 1 3023b.dat
1 15 60 -176 130 0 0 1 0 1 0 -1 0 0 3021.dat
1 71 50 -176 190 0 0 1 0 1 0 -1 0 0 3623.dat
1 72 100 -176 140 1 0 0 0 1 0 0 0 1 3022.dat
1 15 210 -176 110 1 0 0 0 1 0 0 0 1 3024.dat
1 72 250 -176 110 1 0 0 0 1 0 0 0 1 3623.dat
1 72 260 -176 180 1 0 0 0 1 0 0 0 1 3022.dat
1 72 20 -184 140 0 0 1 0 1 0 -1 0 0 3020.dat
1 15 100 -184 120 1 0 0 0 1 0 0 0 1 3795.dat
1 71 50 -184 170 0 0 1 0 1 0 -1 0 0 3623.dat
1 15 70 -184 150 1 0 0 0 1 0 0 0 1 3024.dat
1 15 120 -184 90 1 0 0 0 1 0 0 0 1 3710.dat
1 72 100 -184 150 1 0 0 0 1 0 0 0 1 3023b.dat
1 0 130 -184 150 1 0 0 0 1 0 0 0 1 3024.dat
1 72 150 -184 150 1 0 0 0 1 0 0 0 1 3024.dat
1 72 180 -184 120 1 0 0 0 1 0 0 0 1 3022.dat
1 0 170 -184 150 1 0 0 0 1 0 0 0 1 3024.dat
1 15 190 -184 90 1 0 0 0 1 0 0 0 1 3024.dat
1 72 220 -184 150 1 0 0 0 1 0 0 0 1 3710.dat
1 15 210 -184 120 0 0 1 0 1 0 -1 0 0 3023b.dat
1 71 220 -184 180 1 0 0 0 1 0 0 0 1 3022.dat
1 72 250 -184 120 1 0 0 0 1 0 0 0 1 3021.dat
1 72 260 -184 170 1 0 0 0 1 0 0 0 1 3023b.dat
1 72 270 -184 150 1 0 0 0 1 0 0 0 1 3024.dat
1 72 20 -192 130 0 0 1 0 1 0 -1 0 0 3021.dat
1 72 40 -192 170 1 0 0 0 1 0 0 0 1 3023b.dat
1 15 100 -192 120 1 0 0 0 1 0 0 0 1 3795.dat
1 15 60 -192 150 1 0 0 0 1 0 0 0 1 3023b.dat
1 15 120 -192 90 1 0 0 0 1 0 0 0 1 3710.dat
1 0 160 -192 150 1 0 0 0 1 0 0 0 1 3460.dat
1 72 180 -192 120 1 0 0 0 1 0 0 0 1 3022.dat
1 15 190 -192 90 1 0 0 0 1 0 0 0 1 3024.dat
1 15 210 -192 120 0 0 1 0 1 0 -1 0 0 3023b.dat
1 71 210 -192 170 1 0 0 0 1 0 0 0 1 3024.dat
1 72 250 -192 120 1 0 0 0 1 0 0 0 1 3021.dat
1 72 230 -192 170 1 0 0 0 1 0 0 0 1 3024.dat
1 72 260 -192 150 1 0 0 0 1 0 0 0 1 3023b.dat
1 15 140 -200 100 1 0 0 0 1 0 0 0 1 3795.dat
1 72 100 -200 130 1 0 0 0 1 0 0 0 1 3460.dat
1 72 20 -200 150 1 0 0 0 1 0 0 0 1 3023b.dat
1 15 50 -200 110 1 0 0 0 1 0 0 0 1 3024.dat
1 15 60 -200 150 1 0 0 0 1 0 0 0 1 3023b.dat
1 0 70 -200 110 1 0 0 0 1 0 0 0 1 3024.dat
1 0 90 -200 150 1 0 0 0 1 0 0 0 1 3024.dat
1 72 110 -200 150 1 0 0 0 1 0 0 0 1 3024.dat
1 0 140 -200 150 1 0 0 0 1 0 0 0 1 3023b.dat
1 72 170 -200 150 1 0 0 0 1 0 0 0 1 3024.dat
1 15 210 -200 130 1 0 0 0 1 0 0 0 1 3623.dat
1 0 190 -200 150 1 0 0 0 1 0 0 0 1 3024.dat
1 15 210 -200 110 1 0 0 0 1 0 0 0 1 3024.dat
1 15 220 -200 150 1 0 0 0 1 0 0 0 1 3023b.dat
1 71 230 -200 110 1 0 0 0 1 0 0 0 1 3024.dat
1 72 250 -200 140 0 0 1 0 1 0 -1 0 0 3023b.dat
1 72 270 -200 130 1 0 0 0 1 0 0 0 1 3024.dat
1 72 10 -200 130 1 0 0 0 1 0 0 0 1 3024.dat
1 71 110 -208 160 0 0 1 0 1 0 -1 0 0 3666.dat
1 72 100 -200 210 0 0 1 0 1 0 -1 0 0 3021.dat
1 72 90 -192 210 0 0 1 0 1 0 -1 0 0 3623.dat
1 71 130 -192 200 1 0 0 0 1 0 0 0 1 3021.dat
1 72 140 -192 230 1 0 0 0 1 0 0 0 1 3710.dat
1 72 120 -184 200 1 0 0 0 1 0 0 0 1 3020.dat
1 72 120 -184 230 1 0 0 0 1 0 0 0 1 3710.dat
1 72 170 -184 210 0 0 1 0 1 0 -1 0 0 3623.dat
1 71 90 -176 190 1 0 0 0 1 0 0 0 1 3024.dat
1 72 120 -176 220 1 0 0 0 1 0 0 0 1 3020.dat
1 72 140 -176 190 1 0 0 0 1 0 0 0 1 3710.dat
1 72 170 -176 220 0 0 1 0 1 0 -1 0 0 3023b.dat
1 71 90 -168 190 1 0 0 0 1 0 0 0 1 3024.dat
1 72 120 -168 220 1 0 0 0 1 0 0 0 1 3020.dat
1 72 140 -168 190 1 0 0 0 1 0 0 0 1 3710.dat
1 72 170 -168 220 0 0 1 0 1 0 -1 0 0 3023b.dat
1 72 100 -160 210 0 0 1 0 1 0 -1 0 0 3021.dat
1 71 140 -160 200 1 0 0 0 1 0 0 0 1 3022.dat
1 72 150 -160 230 1 0 0 0 1 0 0 0 1 3623.dat
1 72 170 -160 200 0 0 1 0 1 0 -1 0 0 3023b.dat
1 72 90 -152 210 0 0 1 0 1 0 -1 0 0 3623.dat
1 71 130 -152 200 1 0 0 0 1 0 0 0 1 3021.dat
1 72 140 -152 230 1 0 0 0 1 0 0 0 1 3710.dat
1 72 170 -152 200 0 0 1 0 1 0 -1 0 0 3023b.dat
1 72 120 -144 200 1 0 0 0 1 0 0 0 1 3020.dat
1 72 120 -144 230 1 0 0 0 1 0 0 0 1 3710.dat
1 72 170 -144 210 0 0 1 0 1 0 -1 0 0 3623.dat
1 71 140 -136 190 1 0 0 0 1 0 0 0 1 3023b.dat
1 71 160 -208 140 0 0 1 0 1 0 -1 0 0 3020.dat
1 72 40 -208 130 1 0 0 0 1 0 0 0 1 3710.dat
1 0 80 -208 110 1 0 0 0 1 0 0 0 1 3023b.dat
1 0 80 -208 150 1 0 0 0 1 0 0 0 1 3023b.dat
1 15 100 -208 90 1 0 0 0 1 0 0 0 1 3023b.dat
1 72 90 -208 130 1 0 0 0 1 0 0 0 1 3024.dat
1 72 90 -208 210 0 0 1 0 1 0 -1 0 0 3623.dat
1 72 140 -208 230 1 0 0 0 1 0 0 0 1 3710.dat
1 0 130 -208 130 0 0 1 0 1 0 -1 0 0 3623.dat
1 15 170 -208 90 1 0 0 0 1 0 0 0 1 3623.dat
1 0 190 -208 130 0 0 1 0 1 0 -1 0 0 3623.dat
1 72 240 -208 130 1 0 0 0 1 0 0 0 1 3023b.dat
1 0 100 -216 170 1 0 0 0 1 0 0 0 1 3023b.dat
1 71 140 -216 180 0 0 1 0 1 0 -1 0 0 3020.dat
1 0 180 -216 170 1 0 0 0 1 0 0 0 1 3023b.dat
1 0 70 -216 120 0 0 1 0 1 0 -1 0 0 3023b.dat
1 15 100 -216 130 0 0 1 0 1 0 -1 0 0 3021.dat
1 72 100 -216 210 0 0 1 0 1 0 -1 0 0 3021.dat
1 0 140 -216 120 1 0 0 0 1 0 0 0 1 3022.dat
1 72 150 -216 230 1 0 0 0 1 0 0 0 1 3623.dat
1 15 170 -216 130 0 0 1 0 1 0 -1 0 0 3623.dat
1 0 190 -216 110 1 0 0 0 1 0 0 0 1 3024.dat
1 15 190 -216 140 0 0 1 0 1 0 -1 0 0 3023b.dat
1 15 120 -224 180 1 0 0 0 1 0 0 0 1 3032.dat
1 15 190 -224 180 0 0 1 0 1 0 -1 0 0 3023b.dat
1 15 180 -224 230 1 0 0 0 1 0 0 0 1 3023b.dat
1 15 70 -224 120 0 0 1 0 1 0 -1 0 0 3023b.dat
1 72 100 -224 120 1 0 0 0 1 0 0 0 1 3022.dat
1 72 120 -224 230 1 0 0 0 1 0 0 0 1 3710.dat
1 15 130 -224 120 0 0 1 0 1 0 -1 0 0 3023b.dat
1 72 170 -224 120 1 0 0 0 1 0 0 0 1 3021.dat
1 72 190 -224 150 1 0 0 0 1 0 0 0 1 3024.dat
1 15 80 -232 180 0 0 1 0 1 0 -1 0 0 3795.dat
1 15 140 -232 140 0 0 1 0 1 0 -1 0 0 3795.dat
1 15 80 -232 110 1 0 0 0 1 0 0 0 1 3023b.dat
1 72 110 -232 160 0 0 1 0 1 0 -1 0 0 3666.dat
1 72 140 -232 230 1 0 0 0 1 0 0 0 1 3710.dat
1 15 160 -232 210 1 0 0 0 1 0 0 0 1 3710.dat
1 15 190 -224 210 1 0 0 0 1 0 0 0 1 3024.dat
1 15 180 -232 130 0 0 1 0 1 0 -1 0 0 3021.dat
1 72 170 -232 180 0 0 1 0 1 0 -1 0 0 3023b.dat
1 72 190 -232 170 1 0 0 0 1 0 0 0 1 3024.dat
1 15 190 -232 190 1 0 0 0 1 0 0 0 1 3024.dat
1 15 190 -232 230 1 0 0 0 1 0 0 0 1 3024.dat
1 15 120 -240 140 0 0 1 0 1 0 -1 0 0 3795.dat
1 15 70 -240 160 0 0 1 0 1 0 -1 0 0 3666.dat
1 15 80 -240 230 1 0 0 0 1 0 0 0 1 3023b.dat
1 72 90 -240 160 0 0 1 0 1 0 -1 0 0 3666.dat
1 72 140 -240 220 1 0 0 0 1 0 0 0 1 3020.dat
1 15 150 -240 140 0 0 1 0 1 0 -1 0 0 3666.dat
1 15 170 -240 140 0 0 1 0 1 0 -1 0 0 3710.dat
1 15 180 -240 190 1 0 0 0 1 0 0 0 1 3023b.dat
1 72 190 -240 110 1 0 0 0 1 0 0 0 1 3024.dat
1 15 190 -240 140 0 0 1 0 1 0 -1 0 0 3023b.dat
1 72 190 -240 170 1 0 0 0 1 0 0 0 1 3024.dat
1 15 190 -240 220 0 0 1 0 1 0 -1 0 0 3023b.dat
1 15 140 -248 140 0 0 1 0 1 0 -1 0 0 3032.dat
1 15 70 -248 160 0 0 1 0 1 0 -1 0 0 3666.dat
1 15 80 -248 230 1 0 0 0 1 0 0 0 1 3023b.dat
1 72 90 -248 160 0 0 1 0 1 0 -1 0 0 3666.dat
1 72 140 -248 220 1 0 0 0 1 0 0 0 1 3020.dat
1 72 190 -248 110 1 0 0 0 1 0 0 0 1 3024.dat
1 15 190 -248 130 1 0 0 0 1 0 0 0 1 3024.dat
1 72 190 -248 160 0 0 1 0 1 0 -1 0 0 3023b.dat
1 15 190 -248 210 0 0 1 0 1 0 -1 0 0 3623.dat
1 15 70 -256 160 0 0 1 0 1 0 -1 0 0 3666.dat
1 15 80 -256 230 1 0 0 0 1 0 0 0 1 3023b.dat
1 72 120 -256 160 0 0 1 0 1 0 -1 0 0 3032.dat
1 15 140 -256 90 1 0 0 0 1 0 0 0 1 3710.dat
1 72 140 -256 230 1 0 0 0 1 0 0 0 1 3710.dat
1 72 170 -256 160 0 0 1 0 1 0 -1 0 0 3666.dat
1 72 190 -256 120 0 0 1 0 1 0 -1 0 0 3023b.dat
1 15 190 -256 150 1 0 0 0 1 0 0 0 1 3024.dat
1 72 190 -256 170 1 0 0 0 1 0 0 0 1 3024.dat
1 15 190 -256 210 0 0 1 0 1 0 -1 0 0 3623.dat
1 15 70 -264 160 0 0 1 0 1 0 -1 0 0 3666.dat
1 15 80 -264 230 1 0 0 0 1 0 0 0 1 3023b.dat
1 72 120 -264 160 0 0 1 0 1 0 -1 0 0 3032.dat
1 15 110 -264 90 1 0 0 0 1 0 0 0 1 3024.dat
1 72 140 -264 230 1 0 0 0 1 0 0 0 1 3710.dat
1 72 140 -264 90 1 0 0 0 1 0 0 0 1 3023b.dat
1 15 170 -264 140 0 0 1 0 1 0 -1 0 0 3666.dat
1 15 180 -264 210 1 0 0 0 1 0 0 0 1 3023b.dat
1 72 190 -264 120 0 0 1 0 1 0 -1 0 0 3023b.dat
1 15 190 -264 150 1 0 0 0 1 0 0 0 1 3024.dat
1 72 190 -264 170 1 0 0 0 1 0 0 0 1 3024.dat
1 15 190 -264 190 1 0 0 0 1 0 0 0 1 3024.dat
1 15 190 -264 230 1 0 0 0 1 0 0 0 1 3024.dat
1 72 110 -272 80 0 0 1 0 1 0 -1 0 0 3023b.dat
1 72 140 -272 90 0 0 1 0 1 0 -1 0 0 3021.dat
1 15 170 -272 100 0 0 1 0 1 0 -1 0 0 3710.dat
1 15 70 -272 160 0 0 1 0 1 0 -1 0 0 3666.dat
1 15 80 -272 230 1 0 0 0 1 0 0 0 1 3023b.dat
1 15 100 -272 110 1 0 0 0 1 0 0 0 1 3023b.dat
1 72 100 -272 140 1 0 0 0 1 0 0 0 1 3022.dat
1 71 120 -272 180 1 0 0 0 1 0 0 0 1 3020.dat
1 15 140 -272 210 1 0 0 0 1 0 0 0 1 3666.dat
1 72 140 -272 230 1 0 0 0 1 0 0 0 1 3710.dat
1 72 150 -272 140 0 0 1 0 1 0 -1 0 0 3023b.dat
1 72 170 -272 170 0 0 1 0 1 0 -1 0 0 3623.dat
1 15 190 -272 140 0 0 1 0 1 0 -1 0 0 3710.dat
1 15 190 -272 190 1 0 0 0 1 0 0 0 1 3024.dat
1 15 190 -272 230 1 0 0 0 1 0 0 0 1 3024.dat
1 15 70 -280 160 0 0 1 0 1 0 -1 0 0 3666.dat
1 15 80 -280 230 1 0 0 0 1 0 0 0 1 3023b.dat
1 15 90 -280 120 0 0 1 0 1 0 -1 0 0 3023b.dat
1 15 90 -280 190 0 0 1 0 1 0 -1 0 0 3623.dat
1 15 110 -280 80 0 0 1 0 1 0 -1 0 0 3023b.dat
1 72 140 -280 110 1 0 0 0 1 0 0 0 1 3710.dat
1 72 140 -280 200 1 0 0 0 1 0 0 0 1 3020.dat
1 72 140 -280 230 1 0 0 0 1 0 0 0 1 3710.dat
1 72 140 -280 80 1 0 0 0 1 0 0 0 1 3022.dat
1 15 170 -280 80 0 0 1 0 1 0 -1 0 0 3023b.dat
1 15 180 -280 130 1 0 0 0 1 0 0 0 1 3023b.dat
1 15 180 -280 170 1 0 0 0 1 0 0 0 1 3023b.dat
1 15 190 -280 110 1 0 0 0 1 0 0 0 1 3024.dat
1 15 190 -280 150 1 0 0 0 1 0 0 0 1 3024.dat
1 71 190 -280 190 1 0 0 0 1 0 0 0 1 3024.dat
1 15 190 -280 220 0 0 1 0 1 0 -1 0 0 3023b.dat
1 15 80 -288 180 0 0 1 0 1 0 -1 0 0 3795.dat
1 15 110 -288 100 0 0 1 0 1 0 -1 0 0 3710.dat
1 15 80 -288 110 1 0 0 0 1 0 0 0 1 3023b.dat
1 71 140 -288 200 1 0 0 0 1 0 0 0 1 3020.dat
1 15 140 -288 230 1 0 0 0 1 0 0 0 1 3710.dat
1 72 140 -288 90 0 0 1 0 1 0 -1 0 0 3021.dat
1 15 170 -288 100 0 0 1 0 1 0 -1 0 0 3710.dat
1 15 190 -288 140 0 0 1 0 1 0 -1 0 0 3710.dat
1 71 190 -288 190 1 0 0 0 1 0 0 0 1 3024.dat
1 15 190 -288 220 0 0 1 0 1 0 -1 0 0 3023b.dat
1 15 110 -296 160 0 0 1 0 1 0 -1 0 0 3460.dat
1 15 170 -296 160 0 0 1 0 1 0 -1 0 0 3460.dat
1 15 80 -296 150 0 0 1 0 1 0 -1 0 0 3021.dat
1 15 70 -296 200 0 0 1 0 1 0 -1 0 0 3023b.dat
1 71 90 -296 190 1 0 0 0 1 0 0 0 1 3024.dat
1 15 90 -296 220 0 0 1 0 1 0 -1 0 0 3023b.dat
1 15 110 -296 70 1 0 0 0 1 0 0 0 1 3024.dat
1 72 140 -296 90 0 0 1 0 1 0 -1 0 0 3021.dat
1 15 130 -296 210 0 0 1 0 1 0 -1 0 0 3623.dat
1 71 150 -296 200 0 0 1 0 1 0 -1 0 0 3023b.dat
1 15 150 -296 230 1 0 0 0 1 0 0 0 1 3024.dat
1 15 170 -296 70 1 0 0 0 1 0 0 0 1 3024.dat
1 15 190 -296 150 0 0 1 0 1 0 -1 0 0 3623.dat
1 71 190 -296 190 1 0 0 0 1 0 0 0 1 3024.dat
1 15 190 -296 220 0 0 1 0 1 0 -1 0 0 3023b.dat
1 72 140 -304 100 0 0 1 0 1 0 -1 0 0 3020.dat
1 15 100 -304 170 1 0 0 0 1 0 0 0 1 3023b.dat
1 29 110 -304 70 1 0 0 0 1 0 0 0 1 3024.dat
1 72 110 -304 110 0 0 1 0 1 0 -1 0 0 3623.dat
1 15 110 -304 150 1 0 0 0 1 0 0 0 1 3024.dat
1 15 130 -304 200 1 0 0 0 1 0 0 0 1 3021.dat
1 29 170 -304 70 1 0 0 0 1 0 0 0 1 3024.dat
1 15 170 -304 170 0 0 1 0 1 0 -1 0 0 3623.dat
1 71 150 -312 110 1 0 0 0 1 0 0 0 1 3623.dat
1 71 160 -312 130 1 0 0 0 1 0 0 0 1 3023b.dat
1 29 110 -312 70 1 0 0 0 1 0 0 0 1 3024.dat
1 72 130 -312 90 1 0 0 0 1 0 0 0 1 3623.dat
1 72 110 -312 110 1 0 0 0 1 0 0 0 1 3024.dat
1 71 110 -312 130 1 0 0 0 1 0 0 0 1 3024.dat
1 72 140 -312 70 1 0 0 0 1 0 0 0 1 3023b.dat
1 72 130 -312 130 1 0 0 0 1 0 0 0 1 3024.dat
1 29 170 -312 70 1 0 0 0 1 0 0 0 1 3024.dat
1 71 170 -320 110 0 0 1 0 1 0 -1 0 0 3623.dat
1 29 140 -320 70 1 0 0 0 1 0 0 0 1 3710.dat
1 72 130 -320 90 1 0 0 0 1 0 0 0 1 3623.dat
1 71 130 -320 110 1 0 0 0 1 0 0 0 1 3623.dat
1 71 110 -320 130 1 0 0 0 1 0 0 0 1 3024.dat
1 72 140 -320 130 1 0 0 0 1 0 0 0 1 3023b.dat
1 29 140 -328 70 1 0 0 0 1 0 0 0 1 3710.dat
1 71 110 -328 110 0 0 1 0 1 0 -1 0 0 3623.dat
1 72 140 -328 110 0 0 1 0 1 0 -1 0 0 3021.dat
1 71 170 -328 110 0 0 1 0 1 0 -1 0 0 3623.dat
1 29 140 -336 70 1 0 0 0 1 0 0 0 1 3710.dat
1 71 110 -336 90 1 0 0 0 1 0 0 0 1 3024.dat
1 72 130 -336 120 1 0 0 0 1 0 0 0 1 3021.dat
1 72 140 -336 90 1 0 0 0 1 0 0 0 1 3023b.dat
1 71 170 -336 110 0 0 1 0 1 0 -1 0 0 3623.dat
1 29 140 -344 70 1 0 0 0 1 0 0 0 1 3710.dat
1 71 110 -344 90 1 0 0 0 1 0 0 0 1 3024.dat
1 72 130 -344 120 1 0 0 0 1 0 0 0 1 3021.dat
1 72 140 -344 90 1 0 0 0 1 0 0 0 1 3023b.dat
1 71 170 -344 100 0 0 1 0 1 0 -1 0 0 3023b.dat
1 72 170 -344 130 1 0 0 0 1 0 0 0 1 3024.dat
1 29 140 -352 70 1 0 0 0 1 0 0 0 1 3710.dat
1 72 130 -352 100 1 0 0 0 1 0 0 0 1 3021.dat
1 72 140 -352 130 1 0 0 0 1 0 0 0 1 3710.dat
1 72 120 -360 130 0 0 1 0 1 0 -1 0 0 3021.dat
1 72 150 -360 120 0 0 1 0 1 0 -1 0 0 3710.dat
1 72 170 -360 120 0 0 1 0 1 0 -1 0 0 3023b.dat
1 29 140 -360 70 1 0 0 0 1 0 0 0 1 3710.dat
1 72 130 -360 90 1 0 0 0 1 0 0 0 1 3024.dat
1 72 140 -368 140 1 0 0 0 1 0 0 0 1 3020.dat
1 29 140 -368 70 1 0 0 0 1 0 0 0 1 3710.dat
1 72 140 -368 110 1 0 0 0 1 0 0 0 1 3710.dat
1 72 150 -368 90 1 0 0 0 1 0 0 0 1 3024.dat
1 29 140 -376 70 1 0 0 0 1 0 0 0 1 3710.dat
1 72 140 -376 120 1 0 0 0 1 0 0 0 1 3020.dat
1 72 140 -376 150 1 0 0 0 1 0 0 0 1 3710.dat
1 29 140 -384 70 1 0 0 0 1 0 0 0 1 3710.dat
1 72 140 -384 120 1 0 0 0 1 0 0 0 1 3020.dat
1 72 140 -384 150 1 0 0 0 1 0 0 0 1 3710.dat
1 29 140 -392 70 1 0 0 0 1 0 0 0 1 3710.dat
1 72 140 -392 120 1 0 0 0 1 0 0 0 1 3020.dat
1 72 140 -392 150 1 0 0 0 1 0 0 0 1 3710.dat
1 29 140 -400 70 1 0 0 0 1 0 0 0 1 3710.dat
1 72 140 -400 120 1 0 0 0 1 0 0 0 1 3020.dat
1 72 140 -400 150 1 0 0 0 1 0 0 0 1 3710.dat
1 71 100 -408 40 1 0 0 0 1 0 0 0 1 3032.dat
1 29 180 -408 40 0 0 1 0 1 0 -1 0 0 3020.dat
1 15 130 -408 120 1 0 0 0 1 0 0 0 1 3021.dat
1 72 110 -408 150 1 0 0 0 1 0 0 0 1 3024.dat
1 15 140 -408 150 1 0 0 0 1 0 0 0 1 3023b.dat
1 72 170 -408 130 0 0 1 0 1 0 -1 0 0 3623.dat
1 72 100 -416 180 0 0 1 0 1 0 -1 0 0 3020.dat
1 72 130 -416 180 0 0 1 0 1 0 -1 0 0 3710.dat
1 72 150 -416 180 0 0 1 0 1 0 -1 0 0 3710.dat
1 72 100 -416 110 1 0 0 0 1 0 0 0 1 3023b.dat
1 72 110 -416 130 1 0 0 0 1 0 0 0 1 3623.dat
1 15 140 -416 80 0 0 1 0 1 0 -1 0 0 3020.dat
1 29 160 -416 20 1 0 0 0 1 0 0 0 1 3034.dat
1 29 210 -408 40 0 0 1 0 1 0 -1 0 0 3710.dat
1 29 200 -416 50 1 0 0 0 1 0 0 0 1 3710.dat
1 29 60 -416 40 0 0 1 0 1 0 -1 0 0 3020.dat
1 29 100 -416 60 1 0 0 0 1 0 0 0 1 3022.dat
1 15 150 -416 130 1 0 0 0 1 0 0 0 1 3024.dat
1 29 190 -416 70 1 0 0 0 1 0 0 0 1 3623.dat
1 72 180 -424 120 1 0 0 0 1 0 0 0 1 3031.dat
1 15 120 -424 140 0 0 1 0 1 0 -1 0 0 3795.dat
1 71 100 -424 40 1 0 0 0 1 0 0 0 1 3032.dat
1 72 90 -424 160 0 0 1 0 1 0 -1 0 0 3666.dat
1 72 130 -424 210 1 0 0 0 1 0 0 0 1 3623.dat
1 15 150 -424 170 1 0 0 0 1 0 0 0 1 3024.dat
1 72 150 -424 190 1 0 0 0 1 0 0 0 1 3024.dat
1 29 180 -424 40 0 0 1 0 1 0 -1 0 0 3020.dat
1 29 220 -424 30 0 0 1 0 1 0 -1 0 0 3021.dat
1 29 210 -424 70 1 0 0 0 1 0 0 0 1 3024.dat
1 0 120 -432 100 1 0 0 0 1 0 0 0 1 3795.dat
1 0 120 -432 160 1 0 0 0 1 0 0 0 1 3795.dat
1 0 190 -432 140 0 0 1 0 1 0 -1 0 0 3710.dat
1 71 120 -432 10 1 0 0 0 1 0 0 0 1 3460.dat
1 72 120 -432 130 1 0 0 0 1 0 0 0 1 3710.dat
1 72 120 -432 200 1 0 0 0 1 0 0 0 1 3020.dat
1 0 130 -432 70 1 0 0 0 1 0 0 0 1 3623.dat
1 72 190 -432 70 1 0 0 0 1 0 0 0 1 3623.dat
1 72 170 -432 130 1 0 0 0 1 0 0 0 1 3024.dat
1 72 200 -432 90 1 0 0 0 1 0 0 0 1 3023b.dat
1 72 210 -432 130 0 0 1 0 1 0 -1 0 0 3623.dat
1 71 220 -432 10 1 0 0 0 1 0 0 0 1 3023b.dat
1 71 80 -440 30 0 0 1 0 1 0 -1 0 0 3021.dat
1 71 190 -440 80 0 0 1 0 1 0 -1 0 0 3666.dat
1 71 50 -440 10 1 0 0 0 1 0 0 0 1 3024.dat
1 0 80 -440 100 1 0 0 0 1 0 0 0 1 3022.dat
1 0 120 -440 150 1 0 0 0 1 0 0 0 1 3666.dat
1 72 120 -440 130 1 0 0 0 1 0 0 0 1 3710.dat
1 72 120 -440 180 1 0 0 0 1 0 0 0 1 3020.dat
1 72 120 -440 210 1 0 0 0 1 0 0 0 1 3710.dat
1 15 110 -440 100 0 0 1 0 1 0 -1 0 0 3023b.dat
1 71 160 -440 10 1 0 0 0 1 0 0 0 1 3666.dat
1 0 150 -440 100 1 0 0 0 1 0 0 0 1 3021.dat
1 0 150 -440 70 1 0 0 0 1 0 0 0 1 3024.dat
1 72 170 -440 70 1 0 0 0 1 0 0 0 1 3024.dat
1 72 170 -440 130 1 0 0 0 1 0 0 0 1 3024.dat
1 0 170 -440 170 1 0 0 0 1 0 0 0 1 3024.dat
1 0 190 -440 150 1 0 0 0 1 0 0 0 1 3024.dat
1 72 210 -440 100 0 0 1 0 1 0 -1 0 0 3710.dat
1 72 210 -440 150 1 0 0 0 1 0 0 0 1 3024.dat
1 71 230 -440 10 1 0 0 0 1 0 0 0 1 3024.dat
1 0 120 -448 140 1 0 0 0 1 0 0 0 1 3034.dat
1 0 120 -448 110 1 0 0 0 1 0 0 0 1 3460.dat
1 71 120 -448 20 1 0 0 0 1 0 0 0 1 3020.dat
1 71 60 -448 10 1 0 0 0 1 0 0 0 1 3023b.dat
1 71 70 -448 40 0 0 1 0 1 0 -1 0 0 3023b.dat
1 0 80 -448 90 1 0 0 0 1 0 0 0 1 3023b.dat
1 71 90 -448 50 1 0 0 0 1 0 0 0 1 3024.dat
1 72 120 -448 180 1 0 0 0 1 0 0 0 1 3020.dat
1 72 120 -448 210 1 0 0 0 1 0 0 0 1 3710.dat
1 15 140 -448 90 1 0 0 0 1 0 0 0 1 3710.dat
1 0 150 -448 70 1 0 0 0 1 0 0 0 1 3024.dat
1 71 200 -448 10 1 0 0 0 1 0 0 0 1 3710.dat
1 72 190 -448 70 1 0 0 0 1 0 0 0 1 3623.dat
1 0 170 -448 170 1 0 0 0 1 0 0 0 1 3024.dat
1 71 190 -448 40 0 0 1 0 1 0 -1 0 0 3023b.dat
1 72 200 -448 90 1 0 0 0 1 0 0 0 1 3023b.dat
1 72 210 -448 130 0 0 1 0 1 0 -1 0 0 3623.dat
1 71 140 -456 20 1 0 0 0 1 0 0 0 1 3795.dat
1 72 140 -456 200 1 0 0 0 1 0 0 0 1 3020.dat
1 0 120 -456 120 1 0 0 0 1 0 0 0 1 3034.dat
1 71 60 -456 10 1 0 0 0 1 0 0 0 1 3023b.dat
1 71 70 -456 40 0 0 1 0 1 0 -1 0 0 3023b.dat
1 0 120 -456 150 1 0 0 0 1 0 0 0 1 3666.dat
1 71 90 -456 50 1 0 0 0 1 0 0 0 1 3024.dat
1 0 100 -456 90 1 0 0 0 1 0 0 0 1 3023b.dat
1 72 120 -456 170 1 0 0 0 1 0 0 0 1 3710.dat
1 72 90 -456 200 0 0 1 0 1 0 -1 0 0 3023b.dat
1 15 160 -456 90 1 0 0 0 1 0 0 0 1 3710.dat
1 0 150 -456 70 1 0 0 0 1 0 0 0 1 3024.dat
1 72 190 -456 70 1 0 0 0 1 0 0 0 1 3623.dat
1 0 170 -456 170 1 0 0 0 1 0 0 0 1 3024.dat
1 71 190 -456 50 1 0 0 0 1 0 0 0 1 3024.dat
1 72 200 -456 150 1 0 0 0 1 0 0 0 1 3023b.dat
1 72 210 -456 110 0 0 1 0 1 0 -1 0 0 3623.dat
1 71 210 -456 10 1 0 0 0 1 0 0 0 1 3024.dat
1 71 190 -464 20 1 0 0 0 1 0 0 0 1 3021.dat
1 0 80 -464 120 1 0 0 0 1 0 0 0 1 3020.dat
1 71 70 -464 10 1 0 0 0 1 0 0 0 1 3623.dat
1 0 120 -464 150 1 0 0 0 1 0 0 0 1 3666.dat
1 0 140 -464 90 1 0 0 0 1 0 0 0 1 3666.dat
1 0 120 -464 170 1 0 0 0 1 0 0 0 1 3710.dat
1 72 140 -464 200 1 0 0 0 1 0 0 0 1 3020.dat
1 14 110 -464 10 1 0 0 0 1 0 0 0 1 3024.dat
1 0 140 -464 20 1 0 0 0 1 0 0 0 1 3022.dat
1 72 130 -464 120 0 0 1 0 1 0 -1 0 0 3023b.dat
1 0 170 -464 110 1 0 0 0 1 0 0 0 1 3623.dat
1 72 180 -464 130 1 0 0 0 1 0 0 0 1 3710.dat
1 72 190 -464 70 1 0 0 0 1 0 0 0 1 3623.dat
1 72 170 -464 170 1 0 0 0 1 0 0 0 1 3024.dat
1 72 200 -464 150 1 0 0 0 1 0 0 0 1 3023b.dat
1 72 210 -464 100 0 0 1 0 1 0 -1 0 0 3023b.dat
1 71 70 -472 10 1 0 0 0 1 0 0 0 1 3623.dat
1 0 70 -472 130 0 0 1 0 1 0 -1 0 0 3623.dat
1 0 140 -472 90 1 0 0 0 1 0 0 0 1 3666.dat
1 0 90 -472 110 1 0 0 0 1 0 0 0 1 3024.dat
1 0 140 -472 150 1 0 0 0 1 0 0 0 1 3666.dat
1 14 110 -472 10 1 0 0 0 1 0 0 0 1 3024.dat
1 72 140 -472 180 1 0 0 0 1 0 0 0 1 3020.dat
1 72 140 -472 210 1 0 0 0 1 0 0 0 1 3710.dat
1 0 130 -472 20 0 0 1 0 1 0 -1 0 0 3023b.dat
1 0 150 -472 10 1 0 0 0 1 0 0 0 1 3024.dat
1 71 180 -472 30 1 0 0 0 1 0 0 0 1 3710.dat
1 71 190 -472 10 1 0 0 0 1 0 0 0 1 3623.dat
1 0 190 -472 70 1 0 0 0 1 0 0 0 1 3623.dat
1 0 190 -472 120 1 0 0 0 1 0 0 0 1 3021.dat
1 0 210 -472 90 1 0 0 0 1 0 0 0 1 3024.dat
1 0 210 -472 150 1 0 0 0 1 0 0 0 1 3024.dat
1 71 80 -480 10 1 0 0 0 1 0 0 0 1 3023b.dat
1 14 110 -480 10 1 0 0 0 1 0 0 0 1 3024.dat
1 0 130 -480 20 0 0 1 0 1 0 -1 0 0 3023b.dat
1 14 150 -480 10 1 0 0 0 1 0 0 0 1 3024.dat
1 0 150 -480 30 1 0 0 0 1 0 0 0 1 3024.dat
1 71 180 -480 20 1 0 0 0 1 0 0 0 1 3022.dat
1 71 210 -480 10 1 0 0 0 1 0 0 0 1 3024.dat
1 71 80 -488 30 0 0 1 0 1 0 -1 0 0 3021.dat
1 71 130 -488 20 1 0 0 0 1 0 0 0 1 3021.dat
1 71 190 -488 30 0 0 1 0 1 0 -1 0 0 3623.dat
1 71 170 -488 10 1 0 0 0 1 0 0 0 1 3024.dat
1 71 210 -488 10 1 0 0 0 1 0 0 0 1 3024.dat
1 71 140 -496 10 1 0 0 0 1 0 0 0 1 3460.dat
1 71 100 -496 30 1 0 0 0 1 0 0 0 1 3710.dat
1 71 80 -496 50 1 0 0 0 1 0 0 0 1 3023b.dat
1 71 150 -496 30 1 0 0 0 1 0 0 0 1 3024.dat
1 71 190 -496 40 0 0 1 0 1 0 -1 0 0 3023b.dat
1 71 120 -504 10 1 0 0 0 1 0 0 0 1 3666.dat
1 71 190 -504 10 1 0 0 0 1 0 0 0 1 3024.dat
1 71 140 -512 10 1 0 0 0 1 0 0 0 1 3666.dat
0 STEP
