0 ground + bakery
0 Name: ground_bakery.ldr
0 Author: brick-check

0 // ground + bakery
1 2 120 -8 40 1 0 0 0 1 0 0 0 1 3029.dat
1 2 360 -8 40 1 0 0 0 1 0 0 0 1 3029.dat
1 2 120 -8 120 1 0 0 0 1 0 0 0 1 3029.dat
1 2 360 -8 120 1 0 0 0 1 0 0 0 1 3029.dat
1 2 120 -8 200 1 0 0 0 1 0 0 0 1 3029.dat
1 2 360 -8 200 1 0 0 0 1 0 0 0 1 3029.dat
1 2 240 -16 20 1 0 0 0 1 0 0 0 1 2445.dat
1 2 240 -16 80 1 0 0 0 1 0 0 0 1 3029.dat
1 2 240 -16 160 1 0 0 0 1 0 0 0 1 3029.dat
1 2 240 -16 220 1 0 0 0 1 0 0 0 1 2445.dat
1 2 60 -16 20 1 0 0 0 1 0 0 0 1 3795.dat
1 2 60 -16 80 1 0 0 0 1 0 0 0 1 3032.dat
1 2 60 -16 160 1 0 0 0 1 0 0 0 1 3032.dat
1 2 60 -16 220 1 0 0 0 1 0 0 0 1 3795.dat
1 2 420 -16 20 1 0 0 0 1 0 0 0 1 3795.dat
1 2 420 -16 80 1 0 0 0 1 0 0 0 1 3032.dat
1 2 420 -16 160 1 0 0 0 1 0 0 0 1 3032.dat
1 2 420 -16 220 1 0 0 0 1 0 0 0 1 3795.dat
1 71 40 -24 10 1 0 0 0 1 0 0 0 1 2431.dat
1 71 120 -24 10 1 0 0 0 1 0 0 0 1 2431.dat
1 71 200 -24 10 1 0 0 0 1 0 0 0 1 2431.dat
1 71 280 -24 10 1 0 0 0 1 0 0 0 1 2431.dat
1 71 360 -24 10 1 0 0 0 1 0 0 0 1 2431.dat
1 71 440 -24 10 1 0 0 0 1 0 0 0 1 2431.dat
1 71 40 -24 30 1 0 0 0 1 0 0 0 1 2431.dat
1 71 120 -24 30 1 0 0 0 1 0 0 0 1 2431.dat
1 71 200 -24 30 1 0 0 0 1 0 0 0 1 2431.dat
1 71 280 -24 30 1 0 0 0 1 0 0 0 1 2431.dat
1 71 360 -24 30 1 0 0 0 1 0 0 0 1 2431.dat
1 71 440 -24 30 1 0 0 0 1 0 0 0 1 2431.dat
1 70 200 -40 110 1 0 0 0 1 0 0 0 1 3009.dat
1 70 200 -40 130 1 0 0 0 1 0 0 0 1 3009.dat
1 70 200 -64 110 1 0 0 0 1 0 0 0 1 3009.dat
1 70 200 -64 130 1 0 0 0 1 0 0 0 1 3009.dat
1 19 200 -72 120 1 0 0 0 1 0 0 0 1 3795.dat
1 15 140 -40 210 1 0 0 0 1 0 0 0 1 3009.dat
1 15 260 -40 210 1 0 0 0 1 0 0 0 1 3009.dat
1 15 200 -64 210 1 0 0 0 1 0 0 0 1 3009.dat
1 15 110 -64 210 1 0 0 0 1 0 0 0 1 3622.dat
1 15 290 -64 210 1 0 0 0 1 0 0 0 1 3622.dat
1 15 140 -88 210 1 0 0 0 1 0 0 0 1 3009.dat
1 15 260 -88 210 1 0 0 0 1 0 0 0 1 3009.dat
1 15 200 -112 210 1 0 0 0 1 0 0 0 1 3009.dat
1 15 110 -112 210 1 0 0 0 1 0 0 0 1 3622.dat
1 15 290 -112 210 1 0 0 0 1 0 0 0 1 3622.dat
1 15 140 -136 210 1 0 0 0 1 0 0 0 1 3009.dat
1 15 260 -136 210 1 0 0 0 1 0 0 0 1 3009.dat
1 4 100 -160 230 1 0 0 0 1 0 0 0 1 3039.dat
1 4 140 -160 230 1 0 0 0 1 0 0 0 1 3039.dat
1 4 180 -160 230 1 0 0 0 1 0 0 0 1 3039.dat
1 4 220 -160 230 1 0 0 0 1 0 0 0 1 3039.dat
1 4 260 -160 230 1 0 0 0 1 0 0 0 1 3039.dat
1 4 300 -160 230 1 0 0 0 1 0 0 0 1 3039.dat
0 STEP
