0 shelter + extension
0 Name: shelter_extension.ldr
0 Author: brick-check

0 // shelter + extension
1 71 120 -8 40 1 0 0 0 1 0 0 0 1 3029.dat
1 71 120 -8 100 1 0 0 0 1 0 0 0 1 2445.dat
1 15 20 -32 10 1 0 0 0 1 0 0 0 1 3004.dat
1 15 100 -32 10 1 0 0 0 1 0 0 0 1 3004.dat
1 15 60 -32 110 1 0 0 0 1 0 0 0 1 3009.dat
1 15 10 -32 60 0 0 1 0 1 0 -1 0 0 3010.dat
1 15 110 -32 60 0 0 1 0 1 0 -1 0 0 3010.dat
1 15 10 -56 60 0 0 1 0 1 0 -1 0 0 3009.dat
1 15 110 -56 60 0 0 1 0 1 0 -1 0 0 3009.dat
1 25 30 -56 10 1 0 0 0 1 0 0 0 1 3005.dat
1 25 90 -56 10 1 0 0 0 1 0 0 0 1 3005.dat
1 15 60 -56 110 1 0 0 0 1 0 0 0 1 3010.dat
1 15 60 -80 10 1 0 0 0 1 0 0 0 1 3009.dat
1 15 10 -80 60 0 0 1 0 1 0 -1 0 0 3010.dat
1 15 110 -80 60 0 0 1 0 1 0 -1 0 0 3010.dat
1 15 60 -80 110 1 0 0 0 1 0 0 0 1 3009.dat
1 72 60 -88 40 1 0 0 0 1 0 0 0 1 3032.dat
1 72 60 -88 100 1 0 0 0 1 0 0 0 1 3795.dat
1 72 60 -96 60 1 0 0 0 1 0 0 0 1 3031.dat
1 25 110 -112 10 1 0 0 0 1 0 0 0 1 3005.dat
1 72 60 -104 60 1 0 0 0 1 0 0 0 1 3022.dat
1 25 60 -112 60 1 0 0 0 1 0 0 0 1 3068b.dat
1 15 140 -32 10 1 0 0 0 1 0 0 0 1 3004.dat
1 15 220 -32 10 1 0 0 0 1 0 0 0 1 3004.dat
1 15 180 -32 110 1 0 0 0 1 0 0 0 1 3009.dat
1 15 130 -32 60 0 0 1 0 1 0 -1 0 0 3010.dat
1 15 230 -32 60 0 0 1 0 1 0 -1 0 0 3010.dat
1 15 130 -56 60 0 0 1 0 1 0 -1 0 0 3009.dat
1 15 230 -56 60 0 0 1 0 1 0 -1 0 0 3009.dat
1 25 150 -56 10 1 0 0 0 1 0 0 0 1 3005.dat
1 25 210 -56 10 1 0 0 0 1 0 0 0 1 3005.dat
1 15 180 -56 110 1 0 0 0 1 0 0 0 1 3010.dat
1 15 180 -80 10 1 0 0 0 1 0 0 0 1 3009.dat
1 15 130 -80 60 0 0 1 0 1 0 -1 0 0 3010.dat
1 15 230 -80 60 0 0 1 0 1 0 -1 0 0 3010.dat
1 15 180 -80 110 1 0 0 0 1 0 0 0 1 3009.dat
1 72 180 -88 40 1 0 0 0 1 0 0 0 1 3032.dat
1 72 180 -88 100 1 0 0 0 1 0 0 0 1 3795.dat
1 72 180 -96 60 1 0 0 0 1 0 0 0 1 3031.dat
1 25 230 -112 10 1 0 0 0 1 0 0 0 1 3005.dat
1 72 180 -104 60 1 0 0 0 1 0 0 0 1 3022.dat
1 25 180 -112 60 1 0 0 0 1 0 0 0 1 3068b.dat
0 STEP
