0 outcrop
0 Name: outcrop.ldr
0 Author: brick-check

0 // outcrop
1 2 120 -8 40 1 0 0 0 1 0 0 0 1 3029.dat
1 2 120 -8 120 1 0 0 0 1 0 0 0 1 3029.dat
1 2 120 -16 80 1 0 0 0 1 0 0 0 1 3029.dat
1 72 100 -40 80 1 0 0 0 1 0 0 0 1 3001.dat
1 72 140 -40 120 1 0 0 0 1 0 0 0 1 3001.dat
1 72 30 -40 80 0 0 -1 0 1 0 1 0 0 3039.dat
1 72 210 -40 100 0 0 1 0 1 0 -1 0 0 3039.dat
1 72 100 -40 50 1 0 0 0 1 0 0 0 1 3039.dat
1 72 100 -48 100 1 0 0 0 1 0 0 0 1 3020.dat
1 71 100 -56 100 1 0 0 0 1 0 0 0 1 3022.dat
0 STEP
