0 floor
0 Name: floor.ldr
0 Author: brick-check

0 // floor
1 19 120 -8 40 1 0 0 0 1 0 0 0 1 3029.dat
1 19 360 -8 40 1 0 0 0 1 0 0 0 1 3029.dat
1 19 120 -8 120 1 0 0 0 1 0 0 0 1 3029.dat
1 19 360 -8 120 1 0 0 0 1 0 0 0 1 3029.dat
1 19 120 -8 200 1 0 0 0 1 0 0 0 1 3029.dat
1 19 360 -8 200 1 0 0 0 1 0 0 0 1 3029.dat
1 19 240 -16 20 1 0 0 0 1 0 0 0 1 2445.dat
1 19 240 -16 80 1 0 0 0 1 0 0 0 1 3029.dat
1 19 240 -16 160 1 0 0 0 1 0 0 0 1 3029.dat
1 19 240 -16 220 1 0 0 0 1 0 0 0 1 2445.dat
1 19 60 -16 20 1 0 0 0 1 0 0 0 1 3795.dat
1 19 60 -16 80 1 0 0 0 1 0 0 0 1 3032.dat
1 19 60 -16 160 1 0 0 0 1 0 0 0 1 3032.dat
1 19 60 -16 220 1 0 0 0 1 0 0 0 1 3795.dat
1 19 420 -16 20 1 0 0 0 1 0 0 0 1 3795.dat
1 19 420 -16 80 1 0 0 0 1 0 0 0 1 3032.dat
1 19 420 -16 160 1 0 0 0 1 0 0 0 1 3032.dat
1 19 420 -16 220 1 0 0 0 1 0 0 0 1 3795.dat
0 STEP
