0 base
0 Name: base.ldr
0 Author: brick-check

0 // base
1 10 40 -8 80 0 0 1 0 1 0 -1 0 0 3020.dat
1 10 40 -8 130 1 0 0 0 1 0 0 0 1 3023b.dat
1 10 70 -8 80 0 0 1 0 1 0 -1 0 0 3023b.dat
1 10 40 -16 80 0 0 1 0 1 0 -1 0 0 3795.dat
1 10 70 -16 80 0 0 1 0 1 0 -1 0 0 3710.dat
1 10 60 -24 80 0 0 1 0 1 0 -1 0 0 3795.dat
1 10 70 -16 130 1 0 0 0 1 0 0 0 1 3024.dat
1 10 30 -24 80 0 0 1 0 1 0 -1 0 0 3666.dat
1 10 40 -32 80 0 0 1 0 1 0 -1 0 0 3034.dat
1 10 50 -24 150 1 0 0 0 1 0 0 0 1 3623.dat
1 10 40 -16 150 1 0 0 0 1 0 0 0 1 3023b.dat
1 10 70 -32 80 0 0 1 0 1 0 -1 0 0 3666.dat
1 10 70 -32 150 1 0 0 0 1 0 0 0 1 3024.dat
1 10 60 -40 100 0 0 1 0 1 0 -1 0 0 3034.dat
1 10 40 -32 170 1 0 0 0 1 0 0 0 1 3023b.dat
1 10 30 -40 80 0 0 1 0 1 0 -1 0 0 3460.dat
1 10 30 -40 170 1 0 0 0 1 0 0 0 1 3024.dat
1 10 50 -40 10 1 0 0 0 1 0 0 0 1 3024.dat
1 10 60 -48 80 0 0 1 0 1 0 -1 0 0 3034.dat
1 10 30 -48 100 0 0 1 0 1 0 -1 0 0 3460.dat
1 10 30 -48 10 1 0 0 0 1 0 0 0 1 3024.dat
1 10 60 -48 170 1 0 0 0 1 0 0 0 1 3023b.dat
1 10 40 -56 120 0 0 1 0 1 0 -1 0 0 3034.dat
1 10 80 -56 100 0 0 1 0 1 0 -1 0 0 3034.dat
1 10 100 -48 80 0 0 1 0 1 0 -1 0 0 3020.dat
1 10 100 -48 130 1 0 0 0 1 0 0 0 1 3023b.dat
1 10 90 -48 150 1 0 0 0 1 0 0 0 1 3024.dat
1 10 90 -48 30 1 0 0 0 1 0 0 0 1 3024.dat
1 10 90 -40 80 0 0 1 0 1 0 -1 0 0 3666.dat
1 10 90 -40 150 1 0 0 0 1 0 0 0 1 3024.dat
1 10 110 -40 90 0 0 1 0 1 0 -1 0 0 3623.dat
1 10 90 -32 80 0 0 1 0 1 0 -1 0 0 3710.dat
1 10 90 -32 130 1 0 0 0 1 0 0 0 1 3024.dat
1 10 90 -24 80 0 0 1 0 1 0 -1 0 0 3710.dat
1 10 90 -24 130 1 0 0 0 1 0 0 0 1 3024.dat
1 10 90 -16 80 0 0 1 0 1 0 -1 0 0 3023b.dat
1 10 110 -56 100 0 0 1 0 1 0 -1 0 0 3666.dat
1 10 40 -56 20 1 0 0 0 1 0 0 0 1 3022.dat
1 10 70 -56 10 1 0 0 0 1 0 0 0 1 3024.dat
1 10 60 -64 60 0 0 1 0 1 0 -1 0 0 3032.dat
1 10 110 -64 80 0 0 1 0 1 0 -1 0 0 3666.dat
1 10 40 -64 160 0 0 1 0 1 0 -1 0 0 3020.dat
1 10 80 -64 150 0 0 1 0 1 0 -1 0 0 3021.dat
1 10 110 -64 150 1 0 0 0 1 0 0 0 1 3024.dat
1 10 80 -72 90 1 0 0 0 1 0 0 0 1 3666.dat
1 10 60 -72 40 1 0 0 0 1 0 0 0 1 3031.dat
1 484 60 -72 110 1 0 0 0 1 0 0 0 1 3710.dat
1 10 60 -72 140 1 0 0 0 1 0 0 0 1 3020.dat
1 10 60 -72 170 1 0 0 0 1 0 0 0 1 3710.dat
1 10 40 -72 190 1 0 0 0 1 0 0 0 1 3023b.dat
1 10 110 -72 50 0 0 1 0 1 0 -1 0 0 3623.dat
1 10 110 -72 130 0 0 1 0 1 0 -1 0 0 3623.dat
1 484 20 -80 110 0 0 1 0 1 0 -1 0 0 3021.dat
1 10 60 -80 160 0 0 1 0 1 0 -1 0 0 3020.dat
1 10 120 -80 90 0 0 1 0 1 0 -1 0 0 3021.dat
1 10 60 -80 40 1 0 0 0 1 0 0 0 1 3031.dat
1 10 30 -80 170 0 0 1 0 1 0 -1 0 0 3623.dat
1 72 50 -80 100 0 0 1 0 1 0 -1 0 0 3023b.dat
1 72 90 -80 120 0 0 1 0 1 0 -1 0 0 3710.dat
1 10 90 -80 170 1 0 0 0 1 0 0 0 1 3024.dat
1 10 110 -80 40 0 0 1 0 1 0 -1 0 0 3023b.dat
1 10 110 -80 140 0 0 1 0 1 0 -1 0 0 3023b.dat
1 484 20 -88 100 0 0 1 0 1 0 -1 0 0 3020.dat
1 10 60 -88 20 1 0 0 0 1 0 0 0 1 3020.dat
1 10 60 -88 50 1 0 0 0 1 0 0 0 1 3710.dat
1 10 60 -88 160 1 0 0 0 1 0 0 0 1 3020.dat
1 10 50 -88 190 1 0 0 0 1 0 0 0 1 3623.dat
1 72 50 -88 100 0 0 1 0 1 0 -1 0 0 3710.dat
1 10 90 -88 130 1 0 0 0 1 0 0 0 1 3623.dat
1 10 110 -88 80 1 0 0 0 1 0 0 0 1 3021.dat
1 10 110 -88 110 1 0 0 0 1 0 0 0 1 3623.dat
1 10 110 -88 40 0 0 1 0 1 0 -1 0 0 3023b.dat
1 10 110 -88 150 1 0 0 0 1 0 0 0 1 3024.dat
1 10 120 -96 100 0 0 1 0 1 0 -1 0 0 3020.dat
1 10 40 -96 120 0 0 1 0 1 0 -1 0 0 3034.dat
1 10 60 -96 20 1 0 0 0 1 0 0 0 1 3020.dat
1 10 90 -96 50 1 0 0 0 1 0 0 0 1 3623.dat
1 10 80 -96 160 1 0 0 0 1 0 0 0 1 3022.dat
1 10 70 -96 190 1 0 0 0 1 0 0 0 1 3024.dat
1 72 90 -96 100 0 0 1 0 1 0 -1 0 0 3710.dat
1 10 110 -96 150 1 0 0 0 1 0 0 0 1 3024.dat
1 10 110 -96 30 1 0 0 0 1 0 0 0 1 3024.dat
1 484 10 -96 100 0 0 1 0 1 0 -1 0 0 3710.dat
1 84 30 -104 70 1 0 0 0 1 0 0 0 1 3623.dat
1 484 30 -104 100 1 0 0 0 1 0 0 0 1 3021.dat
1 484 30 -104 130 1 0 0 0 1 0 0 0 1 3623.dat
1 10 60 -104 40 1 0 0 0 1 0 0 0 1 3020.dat
1 10 60 -104 160 1 0 0 0 1 0 0 0 1 3020.dat
1 10 50 -104 190 1 0 0 0 1 0 0 0 1 3623.dat
1 10 60 -104 10 1 0 0 0 1 0 0 0 1 3710.dat
1 72 100 -104 100 0 0 1 0 1 0 -1 0 0 3020.dat
1 10 110 -104 40 0 0 1 0 1 0 -1 0 0 3023b.dat
1 10 110 -104 150 1 0 0 0 1 0 0 0 1 3024.dat
1 10 130 -104 100 0 0 1 0 1 0 -1 0 0 3710.dat
1 484 40 -112 50 1 0 0 0 1 0 0 0 1 3710.dat
1 10 60 -112 20 1 0 0 0 1 0 0 0 1 3020.dat
1 10 40 -112 120 0 0 1 0 1 0 -1 0 0 3795.dat
1 10 50 -112 190 1 0 0 0 1 0 0 0 1 3623.dat
1 10 80 -112 160 1 0 0 0 1 0 0 0 1 3022.dat
1 10 100 -112 80 0 0 1 0 1 0 -1 0 0 3020.dat
1 10 110 -112 130 1 0 0 0 1 0 0 0 1 3623.dat
1 10 110 -112 30 1 0 0 0 1 0 0 0 1 3024.dat
1 10 110 -112 150 1 0 0 0 1 0 0 0 1 3024.dat
1 10 130 -112 90 0 0 1 0 1 0 -1 0 0 3623.dat
1 84 10 -112 80 0 0 1 0 1 0 -1 0 0 3023b.dat
1 484 10 -112 120 0 0 1 0 1 0 -1 0 0 3023b.dat
1 484 40 -120 50 1 0 0 0 1 0 0 0 1 3710.dat
1 84 30 -120 80 1 0 0 0 1 0 0 0 1 3021.dat
1 484 30 -120 120 1 0 0 0 1 0 0 0 1 3021.dat
1 10 60 -120 160 1 0 0 0 1 0 0 0 1 3020.dat
1 10 50 -120 190 1 0 0 0 1 0 0 0 1 3623.dat
1 10 60 -120 20 1 0 0 0 1 0 0 0 1 3020.dat
1 10 100 -120 80 0 0 1 0 1 0 -1 0 0 3020.dat
1 10 110 -120 130 1 0 0 0 1 0 0 0 1 3623.dat
1 10 110 -120 150 1 0 0 0 1 0 0 0 1 3024.dat
1 10 110 -120 30 1 0 0 0 1 0 0 0 1 3024.dat
1 10 130 -120 90 0 0 1 0 1 0 -1 0 0 3623.dat
1 10 60 -128 160 0 0 1 0 1 0 -1 0 0 3020.dat
1 10 40 -128 60 0 0 1 0 1 0 -1 0 0 3795.dat
1 10 30 -128 160 0 0 1 0 1 0 -1 0 0 3710.dat
1 10 80 -128 30 0 0 1 0 1 0 -1 0 0 3021.dat
1 10 100 -128 100 0 0 1 0 1 0 -1 0 0 3020.dat
1 10 90 -128 160 0 0 1 0 1 0 -1 0 0 3023b.dat
1 10 110 -128 40 0 0 1 0 1 0 -1 0 0 3023b.dat
1 10 110 -128 150 1 0 0 0 1 0 0 0 1 3024.dat
1 10 130 -128 90 0 0 1 0 1 0 -1 0 0 3623.dat
1 484 10 -128 50 1 0 0 0 1 0 0 0 1 3024.dat
1 84 10 -128 90 0 0 1 0 1 0 -1 0 0 3623.dat
1 484 10 -128 130 1 0 0 0 1 0 0 0 1 3024.dat
1 484 40 -136 50 1 0 0 0 1 0 0 0 1 3710.dat
1 84 30 -136 80 1 0 0 0 1 0 0 0 1 3021.dat
1 84 30 -136 110 1 0 0 0 1 0 0 0 1 3623.dat
1 484 40 -136 130 1 0 0 0 1 0 0 0 1 3710.dat
1 10 60 -136 20 1 0 0 0 1 0 0 0 1 3020.dat
1 10 60 -136 160 1 0 0 0 1 0 0 0 1 3020.dat
1 10 50 -136 190 1 0 0 0 1 0 0 0 1 3623.dat
1 10 100 -136 80 0 0 1 0 1 0 -1 0 0 3020.dat
1 10 100 -136 130 1 0 0 0 1 0 0 0 1 3023b.dat
1 10 110 -136 30 1 0 0 0 1 0 0 0 1 3024.dat
1 10 110 -136 150 1 0 0 0 1 0 0 0 1 3024.dat
1 10 130 -136 90 0 0 1 0 1 0 -1 0 0 3623.dat
1 10 60 -144 40 1 0 0 0 1 0 0 0 1 3031.dat
1 10 60 -144 140 1 0 0 0 1 0 0 0 1 3031.dat
1 84 30 -144 90 1 0 0 0 1 0 0 0 1 3623.dat
1 10 40 -144 190 1 0 0 0 1 0 0 0 1 3023b.dat
1 10 110 -144 90 1 0 0 0 1 0 0 0 1 3623.dat
1 10 110 -144 50 0 0 1 0 1 0 -1 0 0 3623.dat
1 10 110 -144 130 0 0 1 0 1 0 -1 0 0 3623.dat
1 484 10 -144 50 1 0 0 0 1 0 0 0 1 3024.dat
1 84 10 -144 70 1 0 0 0 1 0 0 0 1 3024.dat
1 84 10 -144 110 1 0 0 0 1 0 0 0 1 3024.dat
1 484 10 -144 130 1 0 0 0 1 0 0 0 1 3024.dat
1 10 80 -152 100 0 0 1 0 1 0 -1 0 0 3032.dat
1 484 20 -152 50 1 0 0 0 1 0 0 0 1 3023b.dat
1 84 20 -152 90 0 0 1 0 1 0 -1 0 0 3021.dat
1 484 20 -152 130 1 0 0 0 1 0 0 0 1 3023b.dat
1 10 50 -152 20 1 0 0 0 1 0 0 0 1 3021.dat
1 10 30 -152 170 0 0 1 0 1 0 -1 0 0 3623.dat
1 10 70 -152 170 1 0 0 0 1 0 0 0 1 3623.dat
1 10 50 -152 190 1 0 0 0 1 0 0 0 1 3024.dat
1 10 100 -152 30 1 0 0 0 1 0 0 0 1 3023b.dat
1 10 40 -160 80 0 0 1 0 1 0 -1 0 0 3034.dat
1 10 50 -160 170 1 0 0 0 1 0 0 0 1 3623.dat
1 10 70 -160 80 0 0 1 0 1 0 -1 0 0 3460.dat
1 10 90 -160 80 0 0 1 0 1 0 -1 0 0 3666.dat
1 10 90 -160 150 1 0 0 0 1 0 0 0 1 3024.dat
1 10 110 -160 80 0 0 1 0 1 0 -1 0 0 3710.dat
1 10 110 -160 130 1 0 0 0 1 0 0 0 1 3024.dat
1 84 10 -160 80 0 0 1 0 1 0 -1 0 0 3023b.dat
1 484 10 -160 120 0 0 1 0 1 0 -1 0 0 3023b.dat
1 84 40 -168 80 1 0 0 0 1 0 0 0 1 3020.dat
1 484 40 -168 120 1 0 0 0 1 0 0 0 1 3020.dat
1 10 60 -168 40 1 0 0 0 1 0 0 0 1 3020.dat
1 10 50 -168 160 1 0 0 0 1 0 0 0 1 3021.dat
1 10 50 -168 10 1 0 0 0 1 0 0 0 1 3623.dat
1 10 100 -168 100 0 0 1 0 1 0 -1 0 0 3020.dat
1 10 90 -168 150 1 0 0 0 1 0 0 0 1 3024.dat
1 10 110 -168 50 1 0 0 0 1 0 0 0 1 3024.dat
1 10 60 -176 60 1 0 0 0 1 0 0 0 1 3031.dat
1 484 50 -176 120 1 0 0 0 1 0 0 0 1 3021.dat
1 10 50 -176 160 1 0 0 0 1 0 0 0 1 3021.dat
1 10 40 -176 10 1 0 0 0 1 0 0 0 1 3023b.dat
1 10 90 -176 130 0 0 1 0 1 0 -1 0 0 3623.dat
1 10 110 -176 90 0 0 1 0 1 0 -1 0 0 3623.dat
1 84 10 -176 90 0 0 1 0 1 0 -1 0 0 3623.dat
1 84 40 -184 80 1 0 0 0 1 0 0 0 1 3020.dat
1 84 40 -184 110 1 0 0 0 1 0 0 0 1 3710.dat
1 10 40 -184 30 0 0 1 0 1 0 -1 0 0 3021.dat
1 10 60 -184 140 1 0 0 0 1 0 0 0 1 3020.dat
1 10 40 -184 170 1 0 0 0 1 0 0 0 1 3023b.dat
1 10 70 -184 40 0 0 1 0 1 0 -1 0 0 3023b.dat
1 10 90 -184 80 0 0 1 0 1 0 -1 0 0 3710.dat
1 10 110 -184 90 0 0 1 0 1 0 -1 0 0 3623.dat
1 10 40 -192 60 0 0 1 0 1 0 -1 0 0 3020.dat
1 484 50 -192 110 1 0 0 0 1 0 0 0 1 3623.dat
1 10 40 -192 150 0 0 1 0 1 0 -1 0 0 3021.dat
1 10 80 -192 70 0 0 1 0 1 0 -1 0 0 3021.dat
1 10 70 -192 140 0 0 1 0 1 0 -1 0 0 3023b.dat
1 10 70 -192 30 1 0 0 0 1 0 0 0 1 3024.dat
1 10 90 -192 120 0 0 1 0 1 0 -1 0 0 3023b.dat
1 84 10 -192 90 1 0 0 0 1 0 0 0 1 3024.dat
1 10 40 -200 80 0 0 1 0 1 0 -1 0 0 3795.dat
1 10 50 -200 150 1 0 0 0 1 0 0 0 1 3623.dat
1 10 70 -200 80 0 0 1 0 1 0 -1 0 0 3666.dat
1 10 90 -200 80 0 0 1 0 1 0 -1 0 0 3710.dat
1 10 90 -200 130 1 0 0 0 1 0 0 0 1 3024.dat
1 10 40 -208 80 0 0 1 0 1 0 -1 0 0 3795.dat
1 10 50 -208 150 1 0 0 0 1 0 0 0 1 3623.dat
1 10 70 -208 80 0 0 1 0 1 0 -1 0 0 3710.dat
1 10 70 -208 130 1 0 0 0 1 0 0 0 1 3024.dat
1 10 90 -208 90 0 0 1 0 1 0 -1 0 0 3623.dat
1 10 40 -216 100 0 0 1 0 1 0 -1 0 0 3795.dat
1 10 40 -216 30 1 0 0 0 1 0 0 0 1 3023b.dat
1 10 70 -216 80 0 0 1 0 1 0 -1 0 0 3710.dat
1 10 70 -216 130 1 0 0 0 1 0 0 0 1 3024.dat
1 10 90 -216 90 0 0 1 0 1 0 -1 0 0 3623.dat
1 10 40 -224 100 0 0 1 0 1 0 -1 0 0 3795.dat
1 10 70 -224 80 0 0 1 0 1 0 -1 0 0 3710.dat
1 10 70 -224 130 1 0 0 0 1 0 0 0 1 3024.dat
1 10 40 -232 80 0 0 1 0 1 0 -1 0 0 3020.dat
1 10 50 -232 130 1 0 0 0 1 0 0 0 1 3623.dat
1 10 30 -232 150 1 0 0 0 1 0 0 0 1 3024.dat
1 10 70 -232 80 0 0 1 0 1 0 -1 0 0 3710.dat
1 10 40 -240 80 0 0 1 0 1 0 -1 0 0 3020.dat
1 10 40 -240 130 1 0 0 0 1 0 0 0 1 3023b.dat
1 10 70 -240 90 0 0 1 0 1 0 -1 0 0 3623.dat
1 10 40 -248 80 0 0 1 0 1 0 -1 0 0 3020.dat
1 10 40 -248 130 1 0 0 0 1 0 0 0 1 3023b.dat
1 10 70 -248 90 0 0 1 0 1 0 -1 0 0 3623.dat
1 10 40 -256 80 0 0 1 0 1 0 -1 0 0 3020.dat
1 10 40 -256 130 1 0 0 0 1 0 0 0 1 3023b.dat
1 10 70 -256 80 0 0 1 0 1 0 -1 0 0 3023b.dat
1 10 40 -264 80 0 0 1 0 1 0 -1 0 0 3020.dat
1 10 30 -264 130 1 0 0 0 1 0 0 0 1 3024.dat
1 10 70 -264 80 0 0 1 0 1 0 -1 0 0 3023b.dat
1 10 40 -272 80 0 0 1 0 1 0 -1 0 0 3020.dat
1 10 40 -280 80 0 0 1 0 1 0 -1 0 0 3020.dat
1 10 30 -288 70 0 0 1 0 1 0 -1 0 0 3623.dat
1 10 50 -288 80 0 0 1 0 1 0 -1 0 0 3023b.dat
0 STEP
