0 head (built on its own)
0 Name: head_built_on_its_own_.ldr
0 Author: brick-check

0 // head (built on its own)
1 72 180 -8 120 1 0 0 0 1 0 0 0 1 3031.dat
1 15 120 -8 140 0 0 1 0 1 0 -1 0 0 3795.dat
1 71 100 -8 40 1 0 0 0 1 0 0 0 1 3032.dat
1 72 90 -8 160 0 0 1 0 1 0 -1 0 0 3666.dat
1 72 130 -8 210 1 0 0 0 1 0 0 0 1 3623.dat
1 15 150 -8 170 1 0 0 0 1 0 0 0 1 3024.dat
1 72 150 -8 190 1 0 0 0 1 0 0 0 1 3024.dat
1 29 180 -8 40 0 0 1 0 1 0 -1 0 0 3020.dat
1 29 220 -8 30 0 0 1 0 1 0 -1 0 0 3021.dat
1 29 210 -8 70 1 0 0 0 1 0 0 0 1 3024.dat
1 0 120 -16 100 1 0 0 0 1 0 0 0 1 3795.dat
1 0 120 -16 160 1 0 0 0 1 0 0 0 1 3795.dat
1 0 190 -16 140 0 0 1 0 1 0 -1 0 0 3710.dat
1 71 120 -16 10 1 0 0 0 1 0 0 0 1 3460.dat
1 72 120 -16 130 1 0 0 0 1 0 0 0 1 3710.dat
1 72 120 -16 200 1 0 0 0 1 0 0 0 1 3020.dat
1 0 130 -16 70 1 0 0 0 1 0 0 0 1 3623.dat
1 72 190 -16 70 1 0 0 0 1 0 0 0 1 3623.dat
1 72 170 -16 130 1 0 0 0 1 0 0 0 1 3024.dat
1 72 200 -16 90 1 0 0 0 1 0 0 0 1 3023b.dat
1 72 210 -16 130 0 0 1 0 1 0 -1 0 0 3623.dat
1 71 220 -16 10 1 0 0 0 1 0 0 0 1 3023b.dat
1 71 80 -24 30 0 0 1 0 1 0 -1 0 0 3021.dat
1 71 190 -24 80 0 0 1 0 1 0 -1 0 0 3666.dat
1 71 50 -24 10 1 0 0 0 1 0 0 0 1 3024.dat
1 0 80 -24 100 1 0 0 0 1 0 0 0 1 3022.dat
1 0 120 -24 150 1 0 0 0 1 0 0 0 1 3666.dat
1 72 120 -24 130 1 0 0 0 1 0 0 0 1 3710.dat
1 72 120 -24 180 1 0 0 0 1 0 0 0 1 3020.dat
1 72 120 -24 210 1 0 0 0 1 0 0 0 1 3710.dat
1 15 110 -24 100 0 0 1 0 1 0 -1 0 0 3023b.dat
1 71 160 -24 10 1 0 0 0 1 0 0 0 1 3666.dat
1 0 150 -24 100 1 0 0 0 1 0 0 0 1 3021.dat
1 0 150 -24 70 1 0 0 0 1 0 0 0 1 3024.dat
1 72 170 -24 70 1 0 0 0 1 0 0 0 1 3024.dat
1 72 170 -24 130 1 0 0 0 1 0 0 0 1 3024.dat
1 0 170 -24 170 1 0 0 0 1 0 0 0 1 3024.dat
1 0 190 -24 150 1 0 0 0 1 0 0 0 1 3024.dat
1 72 210 -24 100 0 0 1 0 1 0 -1 0 0 3710.dat
1 72 210 -24 150 1 0 0 0 1 0 0 0 1 3024.dat
1 71 230 -24 10 1 0 0 0 1 0 0 0 1 3024.dat
1 0 120 -32 140 1 0 0 0 1 0 0 0 1 3034.dat
1 0 120 -32 110 1 0 0 0 1 0 0 0 1 3460.dat
1 71 120 -32 20 1 0 0 0 1 0 0 0 1 3020.dat
1 71 60 -32 10 1 0 0 0 1 0 0 0 1 3023b.dat
1 71 70 -32 40 0 0 1 0 1 0 -1 0 0 3023b.dat
1 0 80 -32 90 1 0 0 0 1 0 0 0 1 3023b.dat
1 71 90 -32 50 1 0 0 0 1 0 0 0 1 3024.dat
1 72 120 -32 180 1 0 0 0 1 0 0 0 1 3020.dat
1 72 120 -32 210 1 0 0 0 1 0 0 0 1 3710.dat
1 15 140 -32 90 1 0 0 0 1 0 0 0 1 3710.dat
1 0 150 -32 70 1 0 0 0 1 0 0 0 1 3024.dat
1 71 200 -32 10 1 0 0 0 1 0 0 0 1 3710.dat
1 72 190 -32 70 1 0 0 0 1 0 0 0 1 3623.dat
1 0 170 -32 170 1 0 0 0 1 0 0 0 1 3024.dat
1 71 190 -32 40 0 0 1 0 1 0 -1 0 0 3023b.dat
1 72 200 -32 90 1 0 0 0 1 0 0 0 1 3023b.dat
1 72 210 -32 130 0 0 1 0 1 0 -1 0 0 3623.dat
1 71 140 -40 20 1 0 0 0 1 0 0 0 1 3795.dat
1 72 140 -40 200 1 0 0 0 1 0 0 0 1 3020.dat
1 0 120 -40 120 1 0 0 0 1 0 0 0 1 3034.dat
1 71 60 -40 10 1 0 0 0 1 0 0 0 1 3023b.dat
1 71 70 -40 40 0 0 1 0 1 0 -1 0 0 3023b.dat
1 0 120 -40 150 1 0 0 0 1 0 0 0 1 3666.dat
1 71 90 -40 50 1 0 0 0 1 0 0 0 1 3024.dat
1 0 100 -40 90 1 0 0 0 1 0 0 0 1 3023b.dat
1 72 120 -40 170 1 0 0 0 1 0 0 0 1 3710.dat
1 72 90 -40 200 0 0 1 0 1 0 -1 0 0 3023b.dat
1 15 160 -40 90 1 0 0 0 1 0 0 0 1 3710.dat
1 0 150 -40 70 1 0 0 0 1 0 0 0 1 3024.dat
1 72 190 -40 70 1 0 0 0 1 0 0 0 1 3623.dat
1 0 170 -40 170 1 0 0 0 1 0 0 0 1 3024.dat
1 71 190 -40 50 1 0 0 0 1 0 0 0 1 3024.dat
1 72 200 -40 150 1 0 0 0 1 0 0 0 1 3023b.dat
1 72 210 -40 110 0 0 1 0 1 0 -1 0 0 3623.dat
1 71 210 -40 10 1 0 0 0 1 0 0 0 1 3024.dat
1 71 190 -48 20 1 0 0 0 1 0 0 0 1 3021.dat
1 0 80 -48 120 1 0 0 0 1 0 0 0 1 3020.dat
1 71 70 -48 10 1 0 0 0 1 0 0 0 1 3623.dat
1 0 120 -48 150 1 0 0 0 1 0 0 0 1 3666.dat
1 0 140 -48 90 1 0 0 0 1 0 0 0 1 3666.dat
1 0 120 -48 170 1 0 0 0 1 0 0 0 1 3710.dat
1 72 140 -48 200 1 0 0 0 1 0 0 0 1 3020.dat
1 14 110 -48 10 1 0 0 0 1 0 0 0 1 3024.dat
1 0 140 -48 20 1 0 0 0 1 0 0 0 1 3022.dat
1 72 130 -48 120 0 0 1 0 1 0 -1 0 0 3023b.dat
1 0 170 -48 110 1 0 0 0 1 0 0 0 1 3623.dat
1 72 180 -48 130 1 0 0 0 1 0 0 0 1 3710.dat
1 72 190 -48 70 1 0 0 0 1 0 0 0 1 3623.dat
1 72 170 -48 170 1 0 0 0 1 0 0 0 1 3024.dat
1 72 200 -48 150 1 0 0 0 1 0 0 0 1 3023b.dat
1 72 210 -48 100 0 0 1 0 1 0 -1 0 0 3023b.dat
1 71 70 -56 10 1 0 0 0 1 0 0 0 1 3623.dat
1 0 70 -56 130 0 0 1 0 1 0 -1 0 0 3623.dat
1 0 140 -56 90 1 0 0 0 1 0 0 0 1 3666.dat
1 0 90 -56 110 1 0 0 0 1 0 0 0 1 3024.dat
1 0 140 -56 150 1 0 0 0 1 0 0 0 1 3666.dat
1 14 110 -56 10 1 0 0 0 1 0 0 0 1 3024.dat
1 72 140 -56 180 1 0 0 0 1 0 0 0 1 3020.dat
1 72 140 -56 210 1 0 0 0 1 0 0 0 1 3710.dat
1 0 130 -56 20 0 0 1 0 1 0 -1 0 0 3023b.dat
1 0 150 -56 10 1 0 0 0 1 0 0 0 1 3024.dat
1 71 180 -56 30 1 0 0 0 1 0 0 0 1 3710.dat
1 71 190 -56 10 1 0 0 0 1 0 0 0 1 3623.dat
1 0 190 -56 70 1 0 0 0 1 0 0 0 1 3623.dat
1 0 190 -56 120 1 0 0 0 1 0 0 0 1 3021.dat
1 0 210 -56 90 1 0 0 0 1 0 0 0 1 3024.dat
1 0 210 -56 150 1 0 0 0 1 0 0 0 1 3024.dat
1 71 80 -64 10 1 0 0 0 1 0 0 0 1 3023b.dat
1 14 110 -64 10 1 0 0 0 1 0 0 0 1 3024.dat
1 0 130 -64 20 0 0 1 0 1 0 -1 0 0 3023b.dat
1 14 150 -64 10 1 0 0 0 1 0 0 0 1 3024.dat
1 0 150 -64 30 1 0 0 0 1 0 0 0 1 3024.dat
1 71 180 -64 20 1 0 0 0 1 0 0 0 1 3022.dat
1 71 210 -64 10 1 0 0 0 1 0 0 0 1 3024.dat
1 71 80 -72 30 0 0 1 0 1 0 -1 0 0 3021.dat
1 71 130 -72 20 1 0 0 0 1 0 0 0 1 3021.dat
1 71 190 -72 30 0 0 1 0 1 0 -1 0 0 3623.dat
1 71 170 -72 10 1 0 0 0 1 0 0 0 1 3024.dat
1 71 210 -72 10 1 0 0 0 1 0 0 0 1 3024.dat
1 71 140 -80 10 1 0 0 0 1 0 0 0 1 3460.dat
1 71 100 -80 30 1 0 0 0 1 0 0 0 1 3710.dat
1 71 80 -80 50 1 0 0 0 1 0 0 0 1 3023b.dat
1 71 150 -80 30 1 0 0 0 1 0 0 0 1 3024.dat
1 71 190 -80 40 0 0 1 0 1 0 -1 0 0 3023b.dat
1 71 120 -88 10 1 0 0 0 1 0 0 0 1 3666.dat
1 71 190 -88 10 1 0 0 0 1 0 0 0 1 3024.dat
1 71 140 -96 10 1 0 0 0 1 0 0 0 1 3666.dat
0 STEP
