0 river
0 Name: river.ldr
0 Author: brick-check

0 // river
1 72 120 -8 40 1 0 0 0 1 0 0 0 1 3029.dat
1 72 120 -8 120 1 0 0 0 1 0 0 0 1 3029.dat
1 33 40 -16 10 1 0 0 0 1 0 0 0 1 2431.dat
1 33 120 -16 10 1 0 0 0 1 0 0 0 1 2431.dat
1 33 200 -16 10 1 0 0 0 1 0 0 0 1 2431.dat
1 33 40 -16 30 1 0 0 0 1 0 0 0 1 2431.dat
1 33 120 -16 30 1 0 0 0 1 0 0 0 1 2431.dat
1 33 200 -16 30 1 0 0 0 1 0 0 0 1 2431.dat
1 33 40 -16 130 1 0 0 0 1 0 0 0 1 2431.dat
1 33 120 -16 130 1 0 0 0 1 0 0 0 1 2431.dat
1 33 200 -16 130 1 0 0 0 1 0 0 0 1 2431.dat
1 33 40 -16 150 1 0 0 0 1 0 0 0 1 2431.dat
1 33 120 -16 150 1 0 0 0 1 0 0 0 1 2431.dat
1 33 200 -16 150 1 0 0 0 1 0 0 0 1 2431.dat
1 33 10 -16 80 0 0 1 0 1 0 -1 0 0 2431.dat
1 33 30 -16 80 0 0 1 0 1 0 -1 0 0 2431.dat
1 33 50 -16 80 0 0 1 0 1 0 -1 0 0 2431.dat
1 33 70 -16 80 0 0 1 0 1 0 -1 0 0 2431.dat
1 33 90 -16 80 0 0 1 0 1 0 -1 0 0 2431.dat
1 33 110 -16 80 0 0 1 0 1 0 -1 0 0 2431.dat
1 33 130 -16 80 0 0 1 0 1 0 -1 0 0 2431.dat
1 33 150 -16 80 0 0 1 0 1 0 -1 0 0 2431.dat
1 33 170 -16 80 0 0 1 0 1 0 -1 0 0 2431.dat
1 33 190 -16 80 0 0 1 0 1 0 -1 0 0 2431.dat
1 33 210 -16 80 0 0 1 0 1 0 -1 0 0 2431.dat
1 33 230 -16 80 0 0 1 0 1 0 -1 0 0 2431.dat
0 STEP
