0 Tiny DataScalar Machine
0 Name: datascalar-machine.ldr
0 Author: brick-check

0 // Lay out the base: six 4x12 plates. They don't hold together yet.
1 2 120 -8 40 1 0 0 0 1 0 0 0 1 3029.dat
1 2 360 -8 40 1 0 0 0 1 0 0 0 1 3029.dat
1 2 120 -8 120 1 0 0 0 1 0 0 0 1 3029.dat
1 2 360 -8 120 1 0 0 0 1 0 0 0 1 3029.dat
1 2 120 -8 200 1 0 0 0 1 0 0 0 1 3029.dat
1 2 360 -8 200 1 0 0 0 1 0 0 0 1 3029.dat
0 STEP
0 // Lock the base: the top layer's seams cross the bottom layer's, so it's now one board.
1 2 60 -16 20 1 0 0 0 1 0 0 0 1 3795.dat
1 2 240 -16 20 1 0 0 0 1 0 0 0 1 2445.dat
1 2 420 -16 20 1 0 0 0 1 0 0 0 1 3795.dat
1 2 60 -16 80 1 0 0 0 1 0 0 0 1 3032.dat
1 2 240 -16 80 1 0 0 0 1 0 0 0 1 3029.dat
1 2 420 -16 80 1 0 0 0 1 0 0 0 1 3032.dat
1 2 60 -16 160 1 0 0 0 1 0 0 0 1 3032.dat
1 2 240 -16 160 1 0 0 0 1 0 0 0 1 3029.dat
1 2 420 -16 160 1 0 0 0 1 0 0 0 1 3032.dat
1 2 60 -16 220 1 0 0 0 1 0 0 0 1 3795.dat
1 2 240 -16 220 1 0 0 0 1 0 0 0 1 2445.dat
1 2 420 -16 220 1 0 0 0 1 0 0 0 1 3795.dat
0 STEP
0 // The shared bus, and a trace from each chip's spot down to it.
1 14 40 -24 30 1 0 0 0 1 0 0 0 1 2431.dat
1 14 120 -24 30 1 0 0 0 1 0 0 0 1 2431.dat
1 14 200 -24 30 1 0 0 0 1 0 0 0 1 2431.dat
1 14 280 -24 30 1 0 0 0 1 0 0 0 1 2431.dat
1 14 360 -24 30 1 0 0 0 1 0 0 0 1 2431.dat
1 14 440 -24 30 1 0 0 0 1 0 0 0 1 2431.dat
1 14 60 -24 50 1 0 0 0 1 0 0 0 1 3069b.dat
1 14 180 -24 50 1 0 0 0 1 0 0 0 1 3069b.dat
1 14 300 -24 50 1 0 0 0 1 0 0 0 1 3069b.dat
1 14 420 -24 50 1 0 0 0 1 0 0 0 1 3069b.dat
0 STEP
0 // Chip 0: two bricks, a lid that ties them, and a smooth top with its die.
1 0 60 -40 80 1 0 0 0 1 0 0 0 1 3001.dat
1 0 60 -40 120 1 0 0 0 1 0 0 0 1 3001.dat
1 0 40 -48 100 0 0 1 0 1 0 -1 0 0 3020.dat
1 0 80 -48 100 0 0 1 0 1 0 -1 0 0 3020.dat
1 71 60 -56 100 1 0 0 0 1 0 0 0 1 3068b.dat
1 0 40 -56 70 1 0 0 0 1 0 0 0 1 3069b.dat
1 0 80 -56 70 1 0 0 0 1 0 0 0 1 3069b.dat
1 0 40 -56 130 1 0 0 0 1 0 0 0 1 3069b.dat
1 0 80 -56 130 1 0 0 0 1 0 0 0 1 3069b.dat
1 0 30 -56 100 0 0 1 0 1 0 -1 0 0 3069b.dat
1 0 90 -56 100 0 0 1 0 1 0 -1 0 0 3069b.dat
0 STEP
0 // Chip 1: two bricks, a lid that ties them, and a smooth top with its die.
1 0 180 -40 80 1 0 0 0 1 0 0 0 1 3001.dat
1 0 180 -40 120 1 0 0 0 1 0 0 0 1 3001.dat
1 0 160 -48 100 0 0 1 0 1 0 -1 0 0 3020.dat
1 0 200 -48 100 0 0 1 0 1 0 -1 0 0 3020.dat
1 71 180 -56 100 1 0 0 0 1 0 0 0 1 3068b.dat
1 0 160 -56 70 1 0 0 0 1 0 0 0 1 3069b.dat
1 0 200 -56 70 1 0 0 0 1 0 0 0 1 3069b.dat
1 0 160 -56 130 1 0 0 0 1 0 0 0 1 3069b.dat
1 0 200 -56 130 1 0 0 0 1 0 0 0 1 3069b.dat
1 0 150 -56 100 0 0 1 0 1 0 -1 0 0 3069b.dat
1 0 210 -56 100 0 0 1 0 1 0 -1 0 0 3069b.dat
0 STEP
0 // Chip 2: two bricks, a lid that ties them, and a smooth top with its die.
1 0 300 -40 80 1 0 0 0 1 0 0 0 1 3001.dat
1 0 300 -40 120 1 0 0 0 1 0 0 0 1 3001.dat
1 0 280 -48 100 0 0 1 0 1 0 -1 0 0 3020.dat
1 0 320 -48 100 0 0 1 0 1 0 -1 0 0 3020.dat
1 71 300 -56 100 1 0 0 0 1 0 0 0 1 3068b.dat
1 0 280 -56 70 1 0 0 0 1 0 0 0 1 3069b.dat
1 0 320 -56 70 1 0 0 0 1 0 0 0 1 3069b.dat
1 0 280 -56 130 1 0 0 0 1 0 0 0 1 3069b.dat
1 0 320 -56 130 1 0 0 0 1 0 0 0 1 3069b.dat
1 0 270 -56 100 0 0 1 0 1 0 -1 0 0 3069b.dat
1 0 330 -56 100 0 0 1 0 1 0 -1 0 0 3069b.dat
0 STEP
0 // Chip 3: two bricks, a lid that ties them, and a smooth top with its die.
1 0 420 -40 80 1 0 0 0 1 0 0 0 1 3001.dat
1 0 420 -40 120 1 0 0 0 1 0 0 0 1 3001.dat
1 0 400 -48 100 0 0 1 0 1 0 -1 0 0 3020.dat
1 0 440 -48 100 0 0 1 0 1 0 -1 0 0 3020.dat
1 71 420 -56 100 1 0 0 0 1 0 0 0 1 3068b.dat
1 0 400 -56 70 1 0 0 0 1 0 0 0 1 3069b.dat
1 0 440 -56 70 1 0 0 0 1 0 0 0 1 3069b.dat
1 0 400 -56 130 1 0 0 0 1 0 0 0 1 3069b.dat
1 0 440 -56 130 1 0 0 0 1 0 0 0 1 3069b.dat
1 0 390 -56 100 0 0 1 0 1 0 -1 0 0 3069b.dat
1 0 450 -56 100 0 0 1 0 1 0 -1 0 0 3069b.dat
0 STEP
0 // Chip 0's memory slice - the only data this chip owns.
1 4 60 -40 170 1 0 0 0 1 0 0 0 1 3010.dat
1 4 60 -48 170 1 0 0 0 1 0 0 0 1 3710.dat
1 4 60 -56 170 1 0 0 0 1 0 0 0 1 2431.dat
1 4 60 -40 210 1 0 0 0 1 0 0 0 1 3010.dat
1 4 60 -48 210 1 0 0 0 1 0 0 0 1 3710.dat
1 4 60 -56 210 1 0 0 0 1 0 0 0 1 2431.dat
0 STEP
0 // Chip 1's memory slice - the only data this chip owns.
1 1 180 -40 170 1 0 0 0 1 0 0 0 1 3010.dat
1 1 180 -48 170 1 0 0 0 1 0 0 0 1 3710.dat
1 1 180 -56 170 1 0 0 0 1 0 0 0 1 2431.dat
1 1 180 -40 210 1 0 0 0 1 0 0 0 1 3010.dat
1 1 180 -48 210 1 0 0 0 1 0 0 0 1 3710.dat
1 1 180 -56 210 1 0 0 0 1 0 0 0 1 2431.dat
0 STEP
0 // Chip 2's memory slice - the only data this chip owns.
1 25 300 -40 170 1 0 0 0 1 0 0 0 1 3010.dat
1 25 300 -48 170 1 0 0 0 1 0 0 0 1 3710.dat
1 25 300 -56 170 1 0 0 0 1 0 0 0 1 2431.dat
1 25 300 -40 210 1 0 0 0 1 0 0 0 1 3010.dat
1 25 300 -48 210 1 0 0 0 1 0 0 0 1 3710.dat
1 25 300 -56 210 1 0 0 0 1 0 0 0 1 2431.dat
0 STEP
0 // Chip 3's memory slice - the only data this chip owns.
1 15 420 -40 170 1 0 0 0 1 0 0 0 1 3010.dat
1 15 420 -48 170 1 0 0 0 1 0 0 0 1 3710.dat
1 15 420 -56 170 1 0 0 0 1 0 0 0 1 2431.dat
1 15 420 -40 210 1 0 0 0 1 0 0 0 1 3010.dat
1 15 420 -48 210 1 0 0 0 1 0 0 0 1 3710.dat
1 15 420 -56 210 1 0 0 0 1 0 0 0 1 2431.dat
0 STEP
