0 base
0 Name: base.ldr
0 Author: brick-check

0 // base
1 19 100 -8 120 1 0 0 0 1 0 0 0 1 3031.dat
1 19 100 -8 170 1 0 0 0 1 0 0 0 1 3710.dat
1 19 110 -8 70 1 0 0 0 1 0 0 0 1 3623.dat
1 19 110 -8 190 1 0 0 0 1 0 0 0 1 3623.dat
1 19 150 -8 120 0 0 1 0 1 0 -1 0 0 3710.dat
1 19 150 -8 170 1 0 0 0 1 0 0 0 1 3024.dat
1 19 170 -8 120 0 0 1 0 1 0 -1 0 0 3023b.dat
1 19 100 -16 120 1 0 0 0 1 0 0 0 1 3032.dat
1 19 100 -16 170 1 0 0 0 1 0 0 0 1 3666.dat
1 19 100 -16 70 1 0 0 0 1 0 0 0 1 3710.dat
1 19 100 -16 190 1 0 0 0 1 0 0 0 1 3710.dat
1 19 170 -16 100 0 0 1 0 1 0 -1 0 0 3023b.dat
1 14 170 -16 150 0 0 1 0 1 0 -1 0 0 3623.dat
1 19 100 -24 120 1 0 0 0 1 0 0 0 1 3034.dat
1 19 100 -24 150 1 0 0 0 1 0 0 0 1 3460.dat
1 19 100 -24 80 1 0 0 0 1 0 0 0 1 3795.dat
1 19 150 -16 70 1 0 0 0 1 0 0 0 1 3024.dat
1 19 100 -24 180 1 0 0 0 1 0 0 0 1 3795.dat
1 14 150 -16 190 1 0 0 0 1 0 0 0 1 3024.dat
1 14 170 -24 80 0 0 1 0 1 0 -1 0 0 3023b.dat
1 14 170 -24 180 0 0 1 0 1 0 -1 0 0 3023b.dat
1 19 40 -32 120 0 0 1 0 1 0 -1 0 0 3795.dat
1 19 100 -32 200 1 0 0 0 1 0 0 0 1 3795.dat
1 19 100 -24 210 1 0 0 0 1 0 0 0 1 3710.dat
1 19 150 -24 210 1 0 0 0 1 0 0 0 1 3024.dat
1 19 120 -16 210 1 0 0 0 1 0 0 0 1 3023b.dat
1 14 170 -32 120 0 0 1 0 1 0 -1 0 0 3460.dat
1 72 70 -32 120 0 0 1 0 1 0 -1 0 0 3666.dat
1 72 120 -32 70 1 0 0 0 1 0 0 0 1 3710.dat
1 72 150 -32 120 0 0 1 0 1 0 -1 0 0 3710.dat
1 72 150 -32 170 1 0 0 0 1 0 0 0 1 3024.dat
1 19 30 -40 120 1 0 0 0 1 0 0 0 1 3021.dat
1 19 30 -40 150 1 0 0 0 1 0 0 0 1 3623.dat
1 19 100 -40 190 1 0 0 0 1 0 0 0 1 3460.dat
1 19 100 -40 220 1 0 0 0 1 0 0 0 1 3020.dat
1 19 110 -32 230 1 0 0 0 1 0 0 0 1 3623.dat
1 14 150 -40 220 0 0 1 0 1 0 -1 0 0 3023b.dat
1 14 160 -40 60 0 0 1 0 1 0 -1 0 0 3020.dat
1 19 100 -32 50 1 0 0 0 1 0 0 0 1 3666.dat
1 14 150 -32 30 1 0 0 0 1 0 0 0 1 3024.dat
1 19 100 -24 50 1 0 0 0 1 0 0 0 1 3710.dat
1 19 150 -24 50 1 0 0 0 1 0 0 0 1 3024.dat
1 19 110 -16 50 1 0 0 0 1 0 0 0 1 3623.dat
1 19 50 -40 80 1 0 0 0 1 0 0 0 1 3021.dat
1 19 50 -40 170 1 0 0 0 1 0 0 0 1 3623.dat
1 19 70 -40 50 1 0 0 0 1 0 0 0 1 3623.dat
1 19 50 -40 210 1 0 0 0 1 0 0 0 1 3024.dat
1 72 90 -40 70 1 0 0 0 1 0 0 0 1 3024.dat
1 72 160 -40 110 1 0 0 0 1 0 0 0 1 3023b.dat
1 72 160 -40 170 1 0 0 0 1 0 0 0 1 3023b.dat
1 72 170 -40 140 0 0 1 0 1 0 -1 0 0 3023b.dat
1 19 20 -48 120 0 0 1 0 1 0 -1 0 0 3020.dat
1 19 30 -48 170 1 0 0 0 1 0 0 0 1 3623.dat
1 19 100 -48 50 1 0 0 0 1 0 0 0 1 3460.dat
1 19 60 -48 200 1 0 0 0 1 0 0 0 1 3020.dat
1 19 100 -48 30 1 0 0 0 1 0 0 0 1 3666.dat
1 19 80 -40 30 1 0 0 0 1 0 0 0 1 3023b.dat
1 19 100 -32 30 1 0 0 0 1 0 0 0 1 3710.dat
1 19 110 -24 30 1 0 0 0 1 0 0 0 1 3024.dat
1 19 80 -48 230 1 0 0 0 1 0 0 0 1 3710.dat
1 14 130 -48 230 0 0 1 0 1 0 -1 0 0 3623.dat
1 14 170 -48 160 0 0 1 0 1 0 -1 0 0 3460.dat
1 14 170 -40 210 1 0 0 0 1 0 0 0 1 3024.dat
1 14 170 -32 210 1 0 0 0 1 0 0 0 1 3024.dat
1 19 50 -48 70 1 0 0 0 1 0 0 0 1 3623.dat
1 72 50 -48 120 0 0 1 0 1 0 -1 0 0 3710.dat
1 72 110 -48 210 1 0 0 0 1 0 0 0 1 3024.dat
1 72 160 -48 70 1 0 0 0 1 0 0 0 1 3023b.dat
1 14 150 -48 210 0 0 1 0 1 0 -1 0 0 3623.dat
1 14 170 -48 30 1 0 0 0 1 0 0 0 1 3024.dat
1 19 20 -56 120 0 0 1 0 1 0 -1 0 0 3795.dat
1 19 30 -56 190 1 0 0 0 1 0 0 0 1 3623.dat
1 19 90 -56 240 1 0 0 0 1 0 0 0 1 3021.dat
1 19 110 -48 250 1 0 0 0 1 0 0 0 1 3024.dat
1 14 140 -56 230 0 0 1 0 1 0 -1 0 0 3021.dat
1 14 190 -56 190 1 0 0 0 1 0 0 0 1 3623.dat
1 14 190 -48 120 0 0 1 0 1 0 -1 0 0 3460.dat
1 14 190 -40 120 0 0 1 0 1 0 -1 0 0 3666.dat
1 14 190 -40 190 1 0 0 0 1 0 0 0 1 3024.dat
1 14 190 -32 140 0 0 1 0 1 0 -1 0 0 3666.dat
1 14 190 -24 120 0 0 1 0 1 0 -1 0 0 3710.dat
1 19 100 -56 50 1 0 0 0 1 0 0 0 1 3460.dat
1 19 60 -56 210 1 0 0 0 1 0 0 0 1 3710.dat
1 19 100 -56 30 1 0 0 0 1 0 0 0 1 3666.dat
1 72 50 -56 120 0 0 1 0 1 0 -1 0 0 3666.dat
1 19 50 -56 230 1 0 0 0 1 0 0 0 1 3024.dat
1 72 110 -56 210 1 0 0 0 1 0 0 0 1 3024.dat
1 14 170 -56 30 1 0 0 0 1 0 0 0 1 3024.dat
1 72 170 -56 120 0 0 1 0 1 0 -1 0 0 3666.dat
1 14 180 -56 210 1 0 0 0 1 0 0 0 1 3023b.dat
1 14 190 -48 210 1 0 0 0 1 0 0 0 1 3024.dat
1 14 170 -56 230 1 0 0 0 1 0 0 0 1 3024.dat
1 14 190 -56 50 1 0 0 0 1 0 0 0 1 3024.dat
1 19 40 -64 100 0 0 1 0 1 0 -1 0 0 3034.dat
1 14 180 -64 160 0 0 1 0 1 0 -1 0 0 3034.dat
1 19 40 -64 200 1 0 0 0 1 0 0 0 1 3022.dat
1 19 100 -64 230 1 0 0 0 1 0 0 0 1 3666.dat
1 19 80 -64 30 0 0 1 0 1 0 -1 0 0 3021.dat
1 19 80 -56 10 1 0 0 0 1 0 0 0 1 3023b.dat
1 19 90 -48 10 1 0 0 0 1 0 0 0 1 3623.dat
1 72 100 -64 210 1 0 0 0 1 0 0 0 1 3710.dat
1 19 90 -64 250 1 0 0 0 1 0 0 0 1 3623.dat
1 14 120 -64 30 0 0 1 0 1 0 -1 0 0 3021.dat
1 14 140 -64 250 1 0 0 0 1 0 0 0 1 3023b.dat
1 14 150 -64 30 0 0 1 0 1 0 -1 0 0 3623.dat
1 72 150 -64 210 1 0 0 0 1 0 0 0 1 3024.dat
1 14 170 -64 50 0 0 1 0 1 0 -1 0 0 3623.dat
1 14 190 -64 60 0 0 1 0 1 0 -1 0 0 3023b.dat
1 14 210 -64 190 1 0 0 0 1 0 0 0 1 3024.dat
1 19 10 -64 120 0 0 1 0 1 0 -1 0 0 3666.dat
1 19 10 -64 190 1 0 0 0 1 0 0 0 1 3024.dat
1 19 100 -72 220 1 0 0 0 1 0 0 0 1 3034.dat
1 19 50 -72 80 0 0 1 0 1 0 -1 0 0 3460.dat
1 14 140 -72 250 1 0 0 0 1 0 0 0 1 3710.dat
1 19 20 -72 120 0 0 1 0 1 0 -1 0 0 3795.dat
1 19 30 -72 190 1 0 0 0 1 0 0 0 1 3623.dat
1 19 30 -72 40 0 0 1 0 1 0 -1 0 0 3023b.dat
1 72 50 -72 170 1 0 0 0 1 0 0 0 1 3024.dat
1 14 120 -72 40 1 0 0 0 1 0 0 0 1 3795.dat
1 19 70 -72 250 1 0 0 0 1 0 0 0 1 3024.dat
1 19 80 -72 10 1 0 0 0 1 0 0 0 1 3023b.dat
1 14 90 -72 250 1 0 0 0 1 0 0 0 1 3024.dat
1 14 130 -72 10 1 0 0 0 1 0 0 0 1 3623.dat
1 72 180 -72 120 0 0 1 0 1 0 -1 0 0 3795.dat
1 14 190 -72 190 1 0 0 0 1 0 0 0 1 3623.dat
1 14 190 -72 50 1 0 0 0 1 0 0 0 1 3024.dat
1 14 190 -72 220 0 0 1 0 1 0 -1 0 0 3023b.dat
1 19 20 -80 80 0 0 1 0 1 0 -1 0 0 3020.dat
1 14 200 -80 140 0 0 1 0 1 0 -1 0 0 3034.dat
1 14 210 -72 120 0 0 1 0 1 0 -1 0 0 3666.dat
1 14 210 -64 120 0 0 1 0 1 0 -1 0 0 3666.dat
1 19 80 -80 30 1 0 0 0 1 0 0 0 1 3666.dat
1 19 40 -80 180 0 0 1 0 1 0 -1 0 0 3795.dat
1 14 120 -80 50 1 0 0 0 1 0 0 0 1 3460.dat
1 72 50 -80 90 0 0 1 0 1 0 -1 0 0 3623.dat
1 14 60 -80 10 1 0 0 0 1 0 0 0 1 3023b.dat
1 72 120 -80 220 1 0 0 0 1 0 0 0 1 3795.dat
1 19 70 -80 250 1 0 0 0 1 0 0 0 1 3024.dat
1 14 120 -80 250 1 0 0 0 1 0 0 0 1 3710.dat
1 19 90 -80 10 1 0 0 0 1 0 0 0 1 3024.dat
1 14 130 -80 10 1 0 0 0 1 0 0 0 1 3623.dat
1 14 160 -80 30 1 0 0 0 1 0 0 0 1 3023b.dat
1 72 170 -80 120 0 0 1 0 1 0 -1 0 0 3666.dat
1 72 170 -80 190 1 0 0 0 1 0 0 0 1 3024.dat
1 14 170 -80 250 1 0 0 0 1 0 0 0 1 3024.dat
1 14 190 -80 230 1 0 0 0 1 0 0 0 1 3024.dat
1 14 10 -80 130 1 0 0 0 1 0 0 0 1 3024.dat
1 19 10 -80 170 0 0 1 0 1 0 -1 0 0 3623.dat
1 19 80 -88 50 1 0 0 0 1 0 0 0 1 3460.dat
1 14 30 -88 70 1 0 0 0 1 0 0 0 1 3623.dat
1 19 30 -88 100 1 0 0 0 1 0 0 0 1 3021.dat
1 14 30 -88 130 1 0 0 0 1 0 0 0 1 3623.dat
1 19 30 -88 160 1 0 0 0 1 0 0 0 1 3021.dat
1 19 30 -88 190 1 0 0 0 1 0 0 0 1 3623.dat
1 19 80 -88 30 1 0 0 0 1 0 0 0 1 3666.dat
1 19 100 -88 220 1 0 0 0 1 0 0 0 1 3034.dat
1 14 60 -88 10 1 0 0 0 1 0 0 0 1 3023b.dat
1 19 70 -88 250 1 0 0 0 1 0 0 0 1 3024.dat
1 19 90 -88 10 1 0 0 0 1 0 0 0 1 3024.dat
1 14 120 -88 250 1 0 0 0 1 0 0 0 1 3710.dat
1 14 130 -88 10 1 0 0 0 1 0 0 0 1 3623.dat
1 14 160 -88 30 1 0 0 0 1 0 0 0 1 3023b.dat
1 14 180 -88 120 0 0 1 0 1 0 -1 0 0 3034.dat
1 14 170 -88 250 1 0 0 0 1 0 0 0 1 3024.dat
1 14 200 -88 210 1 0 0 0 1 0 0 0 1 3023b.dat
1 14 190 -88 230 1 0 0 0 1 0 0 0 1 3024.dat
1 14 210 -88 120 0 0 1 0 1 0 -1 0 0 3666.dat
1 14 210 -88 190 1 0 0 0 1 0 0 0 1 3024.dat
1 14 160 -96 50 0 0 1 0 1 0 -1 0 0 3021.dat
1 19 40 -96 120 0 0 1 0 1 0 -1 0 0 3034.dat
1 14 100 -96 220 1 0 0 0 1 0 0 0 1 3034.dat
1 19 80 -96 30 1 0 0 0 1 0 0 0 1 3666.dat
1 72 100 -96 50 1 0 0 0 1 0 0 0 1 3710.dat
1 14 120 -96 250 1 0 0 0 1 0 0 0 1 3666.dat
1 19 70 -96 10 1 0 0 0 1 0 0 0 1 3024.dat
1 14 90 -96 10 1 0 0 0 1 0 0 0 1 3024.dat
1 19 110 -96 10 1 0 0 0 1 0 0 0 1 3024.dat
1 14 140 -96 10 1 0 0 0 1 0 0 0 1 3023b.dat
1 72 180 -96 140 0 0 1 0 1 0 -1 0 0 3795.dat
1 14 190 -96 60 0 0 1 0 1 0 -1 0 0 3023b.dat
1 14 190 -96 220 0 0 1 0 1 0 -1 0 0 3023b.dat
1 14 210 -96 140 0 0 1 0 1 0 -1 0 0 3666.dat
1 14 10 -96 120 0 0 1 0 1 0 -1 0 0 3666.dat
1 14 10 -96 190 1 0 0 0 1 0 0 0 1 3024.dat
1 14 20 -104 120 0 0 1 0 1 0 -1 0 0 3795.dat
1 14 30 -104 190 1 0 0 0 1 0 0 0 1 3623.dat
1 19 30 -104 30 1 0 0 0 1 0 0 0 1 3024.dat
1 14 100 -104 50 1 0 0 0 1 0 0 0 1 3460.dat
1 14 100 -104 210 1 0 0 0 1 0 0 0 1 3460.dat
1 14 100 -104 30 1 0 0 0 1 0 0 0 1 3666.dat
1 72 50 -104 120 0 0 1 0 1 0 -1 0 0 3666.dat
1 14 120 -104 230 1 0 0 0 1 0 0 0 1 3460.dat
1 14 100 -104 250 1 0 0 0 1 0 0 0 1 3710.dat
1 14 100 -104 10 1 0 0 0 1 0 0 0 1 3710.dat
1 14 170 -104 70 1 0 0 0 1 0 0 0 1 3623.dat
1 14 150 -104 250 1 0 0 0 1 0 0 0 1 3024.dat
1 14 150 -104 10 1 0 0 0 1 0 0 0 1 3024.dat
1 14 170 -104 30 1 0 0 0 1 0 0 0 1 3024.dat
1 72 180 -104 140 0 0 1 0 1 0 -1 0 0 3795.dat
1 14 190 -104 50 1 0 0 0 1 0 0 0 1 3024.dat
1 14 190 -104 210 1 0 0 0 1 0 0 0 1 3024.dat
1 14 210 -104 140 0 0 1 0 1 0 -1 0 0 3666.dat
1 14 160 -112 60 0 0 1 0 1 0 -1 0 0 3020.dat
1 14 40 -112 120 0 0 1 0 1 0 -1 0 0 3034.dat
1 14 100 -112 210 1 0 0 0 1 0 0 0 1 3460.dat
1 14 80 -112 30 1 0 0 0 1 0 0 0 1 3710.dat
1 14 120 -112 230 1 0 0 0 1 0 0 0 1 3460.dat
1 14 100 -112 10 1 0 0 0 1 0 0 0 1 3710.dat
1 72 100 -112 50 1 0 0 0 1 0 0 0 1 3710.dat
1 14 100 -112 250 1 0 0 0 1 0 0 0 1 3710.dat
1 72 130 -112 30 1 0 0 0 1 0 0 0 1 3024.dat
1 14 150 -112 10 1 0 0 0 1 0 0 0 1 3024.dat
1 14 150 -112 250 1 0 0 0 1 0 0 0 1 3024.dat
1 72 180 -112 140 0 0 1 0 1 0 -1 0 0 3020.dat
1 14 190 -112 190 1 0 0 0 1 0 0 0 1 3623.dat
1 14 190 -112 80 0 0 1 0 1 0 -1 0 0 3023b.dat
1 14 190 -112 210 1 0 0 0 1 0 0 0 1 3024.dat
1 14 210 -112 140 0 0 1 0 1 0 -1 0 0 3710.dat
1 14 10 -112 120 0 0 1 0 1 0 -1 0 0 3666.dat
1 14 10 -112 190 1 0 0 0 1 0 0 0 1 3024.dat
1 14 50 -120 60 1 0 0 0 1 0 0 0 1 3021.dat
1 14 50 -120 200 1 0 0 0 1 0 0 0 1 3021.dat
1 14 160 -120 80 0 0 1 0 1 0 -1 0 0 3020.dat
1 14 170 -120 200 1 0 0 0 1 0 0 0 1 3021.dat
1 14 20 -120 120 0 0 1 0 1 0 -1 0 0 3020.dat
1 14 30 -120 170 1 0 0 0 1 0 0 0 1 3623.dat
1 72 50 -120 120 0 0 1 0 1 0 -1 0 0 3710.dat
1 14 100 -120 230 1 0 0 0 1 0 0 0 1 3666.dat
1 14 100 -120 30 1 0 0 0 1 0 0 0 1 3666.dat
1 72 110 -120 50 1 0 0 0 1 0 0 0 1 3623.dat
1 72 110 -120 210 1 0 0 0 1 0 0 0 1 3623.dat
1 14 110 -120 250 1 0 0 0 1 0 0 0 1 3623.dat
1 14 120 -120 10 1 0 0 0 1 0 0 0 1 3710.dat
1 14 190 -120 140 1 0 0 0 1 0 0 0 1 3021.dat
1 14 190 -120 170 1 0 0 0 1 0 0 0 1 3623.dat
1 14 170 -120 230 1 0 0 0 1 0 0 0 1 3024.dat
1 14 190 -120 90 0 0 1 0 1 0 -1 0 0 3623.dat
1 14 210 -120 190 1 0 0 0 1 0 0 0 1 3024.dat
1 14 60 -128 140 0 0 1 0 1 0 -1 0 0 3034.dat
1 72 120 -128 60 1 0 0 0 1 0 0 0 1 3020.dat
1 14 140 -128 200 1 0 0 0 1 0 0 0 1 3795.dat
1 72 160 -128 140 0 0 1 0 1 0 -1 0 0 3020.dat
1 14 30 -128 140 0 0 1 0 1 0 -1 0 0 3460.dat
1 14 60 -128 50 1 0 0 0 1 0 0 0 1 3023b.dat
1 14 100 -128 30 1 0 0 0 1 0 0 0 1 3710.dat
1 14 120 -128 230 1 0 0 0 1 0 0 0 1 3666.dat
1 14 150 -128 30 1 0 0 0 1 0 0 0 1 3024.dat
1 14 170 -128 90 1 0 0 0 1 0 0 0 1 3623.dat
1 14 170 -128 60 0 0 1 0 1 0 -1 0 0 3023b.dat
1 14 190 -128 140 0 0 1 0 1 0 -1 0 0 3710.dat
1 14 120 -136 80 1 0 0 0 1 0 0 0 1 3795.dat
1 14 150 -136 110 1 0 0 0 1 0 0 0 1 3623.dat
1 14 40 -136 140 0 0 1 0 1 0 -1 0 0 3795.dat
1 14 50 -136 70 1 0 0 0 1 0 0 0 1 3024.dat
1 14 100 -136 210 1 0 0 0 1 0 0 0 1 3666.dat
1 14 100 -136 50 1 0 0 0 1 0 0 0 1 3710.dat
1 72 70 -136 140 0 0 1 0 1 0 -1 0 0 3710.dat
1 72 120 -136 190 1 0 0 0 1 0 0 0 1 3666.dat
1 14 100 -136 230 1 0 0 0 1 0 0 0 1 3710.dat
1 14 100 -136 30 1 0 0 0 1 0 0 0 1 3023b.dat
1 14 150 -136 50 1 0 0 0 1 0 0 0 1 3024.dat
1 14 170 -136 140 1 0 0 0 1 0 0 0 1 3021.dat
1 14 170 -136 170 1 0 0 0 1 0 0 0 1 3623.dat
1 14 150 -136 230 1 0 0 0 1 0 0 0 1 3024.dat
1 14 170 -136 210 1 0 0 0 1 0 0 0 1 3024.dat
1 14 190 -136 190 1 0 0 0 1 0 0 0 1 3024.dat
1 14 80 -144 140 0 0 1 0 1 0 -1 0 0 3034.dat
1 14 120 -144 90 0 0 1 0 1 0 -1 0 0 3021.dat
1 72 140 -144 160 0 0 1 0 1 0 -1 0 0 3020.dat
1 14 50 -144 140 0 0 1 0 1 0 -1 0 0 3666.dat
1 14 100 -144 50 1 0 0 0 1 0 0 0 1 3023b.dat
1 14 110 -144 210 0 0 1 0 1 0 -1 0 0 3623.dat
1 14 150 -144 210 1 0 0 0 1 0 0 0 1 3623.dat
1 14 130 -144 230 1 0 0 0 1 0 0 0 1 3024.dat
1 14 150 -144 100 0 0 1 0 1 0 -1 0 0 3023b.dat
1 14 170 -144 160 0 0 1 0 1 0 -1 0 0 3710.dat
1 14 120 -152 160 1 0 0 0 1 0 0 0 1 3031.dat
1 14 100 -152 110 1 0 0 0 1 0 0 0 1 3710.dat
1 14 70 -152 150 0 0 1 0 1 0 -1 0 0 3623.dat
1 14 100 -152 80 1 0 0 0 1 0 0 0 1 3022.dat
1 14 110 -152 210 1 0 0 0 1 0 0 0 1 3024.dat
1 14 130 -152 90 1 0 0 0 1 0 0 0 1 3024.dat
1 14 150 -152 110 1 0 0 0 1 0 0 0 1 3024.dat
1 14 70 -160 140 0 0 1 0 1 0 -1 0 0 3710.dat
1 191 100 -160 140 0 0 1 0 1 0 -1 0 0 3020.dat
1 14 120 -160 190 1 0 0 0 1 0 0 0 1 3710.dat
1 14 140 -160 140 0 0 1 0 1 0 -1 0 0 3020.dat
1 14 100 -168 160 0 0 1 0 1 0 -1 0 0 3795.dat
1 14 130 -168 160 0 0 1 0 1 0 -1 0 0 3666.dat
1 14 70 -168 140 0 0 1 0 1 0 -1 0 0 3710.dat
1 14 150 -168 140 0 0 1 0 1 0 -1 0 0 3710.dat
1 14 150 -168 190 1 0 0 0 1 0 0 0 1 3024.dat
1 14 120 -176 140 0 0 1 0 1 0 -1 0 0 3795.dat
1 14 150 -176 160 0 0 1 0 1 0 -1 0 0 3666.dat
1 14 80 -176 140 0 0 1 0 1 0 -1 0 0 3020.dat
1 14 90 -176 200 0 0 1 0 1 0 -1 0 0 3023b.dat
1 14 120 -176 210 1 0 0 0 1 0 0 0 1 3023b.dat
1 14 100 -184 140 0 0 1 0 1 0 -1 0 0 3795.dat
1 191 110 -184 220 0 0 1 0 1 0 -1 0 0 3023b.dat
1 84 130 -184 180 0 0 1 0 1 0 -1 0 0 3666.dat
1 191 150 -184 220 0 0 1 0 1 0 -1 0 0 3023b.dat
1 14 70 -184 140 0 0 1 0 1 0 -1 0 0 3710.dat
1 14 90 -184 210 1 0 0 0 1 0 0 0 1 3024.dat
1 14 130 -184 100 0 0 1 0 1 0 -1 0 0 3023b.dat
1 14 150 -184 140 0 0 1 0 1 0 -1 0 0 3710.dat
1 14 150 -184 190 1 0 0 0 1 0 0 0 1 3024.dat
1 84 130 -192 180 0 0 1 0 1 0 -1 0 0 3460.dat
1 191 150 -192 230 0 0 1 0 1 0 -1 0 0 3623.dat
1 14 80 -192 140 0 0 1 0 1 0 -1 0 0 3020.dat
1 14 110 -192 90 1 0 0 0 1 0 0 0 1 3623.dat
1 14 100 -192 200 1 0 0 0 1 0 0 0 1 3022.dat
1 72 110 -192 140 0 0 1 0 1 0 -1 0 0 3710.dat
1 191 110 -192 230 1 0 0 0 1 0 0 0 1 3024.dat
1 14 150 -192 140 0 0 1 0 1 0 -1 0 0 3710.dat
1 14 150 -192 190 1 0 0 0 1 0 0 0 1 3024.dat
1 14 100 -200 140 1 0 0 0 1 0 0 0 1 3031.dat
1 14 110 -200 90 1 0 0 0 1 0 0 0 1 3623.dat
1 14 110 -200 200 1 0 0 0 1 0 0 0 1 3021.dat
1 191 130 -200 230 1 0 0 0 1 0 0 0 1 3623.dat
1 84 130 -200 250 1 0 0 0 1 0 0 0 1 3024.dat
1 14 150 -200 140 0 0 1 0 1 0 -1 0 0 3710.dat
1 14 150 -200 190 1 0 0 0 1 0 0 0 1 3024.dat
1 191 150 -200 210 1 0 0 0 1 0 0 0 1 3024.dat
1 191 150 -200 250 1 0 0 0 1 0 0 0 1 3024.dat
1 14 100 -208 140 1 0 0 0 1 0 0 0 1 3031.dat
1 14 110 -208 90 1 0 0 0 1 0 0 0 1 3623.dat
1 14 110 -208 200 1 0 0 0 1 0 0 0 1 3021.dat
1 191 130 -208 230 1 0 0 0 1 0 0 0 1 3623.dat
1 191 140 -208 250 1 0 0 0 1 0 0 0 1 3023b.dat
1 14 150 -208 140 0 0 1 0 1 0 -1 0 0 3710.dat
1 14 150 -208 190 1 0 0 0 1 0 0 0 1 3024.dat
1 191 150 -208 210 1 0 0 0 1 0 0 0 1 3024.dat
1 14 100 -216 140 1 0 0 0 1 0 0 0 1 3031.dat
1 14 110 -216 90 1 0 0 0 1 0 0 0 1 3623.dat
1 14 120 -216 190 1 0 0 0 1 0 0 0 1 3710.dat
1 14 90 -216 210 1 0 0 0 1 0 0 0 1 3024.dat
1 191 130 -216 210 1 0 0 0 1 0 0 0 1 3623.dat
1 191 140 -216 230 1 0 0 0 1 0 0 0 1 3023b.dat
1 84 130 -216 250 1 0 0 0 1 0 0 0 1 3024.dat
1 14 150 -216 140 0 0 1 0 1 0 -1 0 0 3710.dat
1 191 150 -216 250 1 0 0 0 1 0 0 0 1 3024.dat
1 14 100 -224 140 1 0 0 0 1 0 0 0 1 3031.dat
1 14 110 -224 90 1 0 0 0 1 0 0 0 1 3623.dat
1 14 120 -224 200 1 0 0 0 1 0 0 0 1 3020.dat
1 14 150 -224 140 0 0 1 0 1 0 -1 0 0 3710.dat
1 14 70 -232 140 0 0 1 0 1 0 -1 0 0 3710.dat
1 19 100 -232 140 0 0 1 0 1 0 -1 0 0 3020.dat
1 14 120 -232 200 1 0 0 0 1 0 0 0 1 3020.dat
1 14 120 -232 90 1 0 0 0 1 0 0 0 1 3023b.dat
1 14 140 -232 130 0 0 1 0 1 0 -1 0 0 3021.dat
1 19 140 -232 170 1 0 0 0 1 0 0 0 1 3023b.dat
1 14 100 -240 140 1 0 0 0 1 0 0 0 1 3031.dat
1 14 120 -240 190 1 0 0 0 1 0 0 0 1 3710.dat
1 14 120 -240 210 1 0 0 0 1 0 0 0 1 3023b.dat
1 14 150 -240 130 0 0 1 0 1 0 -1 0 0 3623.dat
1 19 150 -240 170 1 0 0 0 1 0 0 0 1 3024.dat
1 14 100 -248 140 1 0 0 0 1 0 0 0 1 3031.dat
1 14 120 -248 190 1 0 0 0 1 0 0 0 1 3710.dat
1 14 130 -248 210 1 0 0 0 1 0 0 0 1 3024.dat
1 14 150 -248 140 0 0 1 0 1 0 -1 0 0 3710.dat
1 14 100 -256 140 1 0 0 0 1 0 0 0 1 3020.dat
1 14 110 -256 110 1 0 0 0 1 0 0 0 1 3623.dat
1 14 120 -256 180 1 0 0 0 1 0 0 0 1 3020.dat
1 14 150 -256 140 0 0 1 0 1 0 -1 0 0 3023b.dat
0 STEP
